<svg version="1" xmlns="http://www.w3.org/2000/svg" width="666.667" height="666.667" viewBox="0 0 500.000000 500.000000"><path d="M465.9 24.7c-1.3 1.6-1.2 1.7.4.4 1.6-1.3 2.1-2.1 1.3-2.1-.2 0-1 .8-1.7 1.7z"/><path d="M470.7 26.3c-.1.5-1.5.9-3 .9s-3.2.8-3.9 1.7c-1 1.3-1 1.4.2.3.8-.6 1.9-1.2 2.5-1.2.5 0-.3 1.1-2 2.4-1.6 1.3-3.5 2.1-4.2 1.9-.7-.3-1.3 0-1.3.7 0 .6-.5.8-1 .5-.6-.4-.8-1-.6-1.4.3-.4-.1-.8-.9-.8-1.1 0-1.2.3-.3 1.4.9 1.1.6 1.8-1.3 3.1-1.3.9-3.1 1.7-3.9 1.7-.8 0-1.4.6-1.2 1.4.2 1.1-.3 1-2.3-.3-2.8-1.9-3.4-1.1-.7 1.1.9.8 1.2 1.2.5.9-.6-.4-1.4-.2-1.8.4-.3.5-1.3 1-2.1 1s-1.2-.5-.9-1c.4-.6 1.1-.7 1.7-.4.7.4.8.2.4-.5-.6-.9-1.1-.9-2.2 0-.9.7-1.1 1.6-.5 2.3.6.7.2 1.1-1.5 1.2-1.4.1-2.1-.2-1.7-.9.3-.6.1-.7-.5-.3-.6.4-.9 1.3-.6 2 .3.8 0 1.7-.7 2.2-.7.4-1 .3-.7-.2.3-.5-.1-1.5-.8-2.2-1.3-1.2-1.4-1-.9 1.1.5 1.9.2 2.8-1.3 3.6-1.1.6-2.2.7-2.6.4-.3-.3-.6-.1-.6.6 0 .9-.6.6-1.7-.6-1-1-1.5-1.4-1-.9 1 1.4.9 4.8-.2 4.2-.5-.3-1.9.3-3.2 1.3-1.8 1.4-2.8 1.7-4.2.9-1-.5-2.1-.7-2.5-.4-.3.3 0 .6.6.6.7 0 1.2.7 1.2 1.7 0 1.4-.3 1.4-2.2-.3-1.2-1-1.8-1.3-1.4-.7.4.7.2 1.3-.3 1.3-.6 0-1.1.5-1.1 1.1 0 .8.6.7 1.8-.2 1.5-1.3 1.6-1.2.3.4-.8.9-1.6 1.5-1.9 1.3-.2-.3-1.1.2-1.9 1-.8.8-1.8 1.2-2.3.9-.4-.3-1 .2-1.4 1-.3.9-1.2 1.2-2.2.8-1.1-.4-1.5-.2-1.1.4.4.6.1 1.5-.6 2-1.7 1.3-6.2 1-6.2-.4 0-.6-.3-1.4-.7-1.8-.9-.9-.4 1.7.6 3.3.9 1.5-1.2 4.2-3.5 4.5-.8.2-2.8 1.2-4.5 2.4-2.8 2-3 2-3.1.3-.1-1.2.4-1.7 1.5-1.5 1.8.3 4.2-1.2 4.2-2.6 0-.5-.4-.9-1-.9-.5 0-.9.5-.7 1.2.1.7-.9 1.2-2.3 1.3-1.5 0-2.6.6-2.6 1.5-.1.8-.2 2.1-.3 2.8 0 .7-.6 1-1.1.7-.6-.4-.7-1.1-.4-1.7.4-.7.2-.8-.5-.4-.6.4-.8 1.2-.5 1.8.5.7.1.9-.9.5-1.2-.4-1.4-.2-1 1 .4 1.1.2 1.4-.5.9-.7-.4-1.2-.1-1.2.7 0 .7-.6 1.4-1.2 1.4-.7 0-2.2.4-3.2.9-1.3.5-1.7.4-1.2-.4.3-.6.2-1.4-.4-1.7-.6-.4-.9-.1-.8.6.2.7-.2 1.3-.9 1.4-.6 0-1.5.3-1.9.7-.3.4.3.6 1.4.3 1.2-.2 2.5.2 2.8.8.4.7.4.9-.1.5-.4-.4-1.4 0-2.2 1-.8.9-1.2 1.1-.8.4 1.1-2.1-.5-1.3-3.2 1.5-1.6 1.7-2.4 2.1-2 1.1.3-1 .1-2-.5-2.4-.7-.4-.8-.3-.4.4s.2 1.2-.4 1.2c-.7 0-1 .6-.7 1.4.3.8-.1 1.7-.9 2-2.4.9-2.9.7-1.6-.6.7-.7 1.2-1.7 1.2-2.2 0-.6-.5-.3-1.1.7-.6 1-1.5 1.4-2.2 1-.7-.4-.5.2.3 1.2 1.4 1.7 1.3 1.8-.3 1.2-1-.4-1.6-.3-1.3.2.3.5 0 1.3-.7 1.9-.9.8-1.2.4-1.2-1.3 0-1.3.4-2.1.9-1.7.5.3.6-.2.3-1.2-.4-1-.3-1.5.3-1.1.6.3 1 .1 1-.5s.5-.8 1-.5c.6.3 1 .1 1-.4 0-.6-1-1-2.2-.8-1.8.1-2.3-.3-2.2-1.9 0-1.1-.5-2.1-1.2-2.1s-1 .7-.8 1.6c.3.9-.1.6-.7-.7-.7-1.3-1.8-2.1-2.5-1.8-.7.3-2.4-.4-3.7-1.4-1.3-1.1-2.7-1.7-2.9-1.4-.3.2-1.1-.2-1.8-1.1-.7-.8-1.8-1.5-2.6-1.5-.7 0-1.6-.4-1.9-1-.3-.6.1-.7.9-.4.9.3 1.6.2 1.6-.3s-1.7-.9-3.7-1c-2.1 0-3.9-.6-4.1-1.2-.2-.6-.7-.9-1.2-.6-1.3.8-4-2.4-3.4-3.9.3-.7-.2-1.6-1.1-2-1.1-.4-1.4-.2-.8.7.4.6.8 1.9 1 2.7.1 1-.3.9-1.3-.4-.9-1.3-1.4-1.5-1.4-.6 0 .8-.7.5-1.9-.8-2.2-2.7-3.2-2.8-2.5-.5.4 1.4.3 1.5-.4.5-.5-.8-1.2-1.3-1.6-1.3-2.1.2-3.6-1.3-3.1-3.3.6-2.1.6-2.1-.7 0-1.1 1.7-1.6 1.9-3.6.8-1.3-.6-2.3-1.4-2.3-1.8.2-2 0-2.6-1-2.6-.8 0-.8.4 0 1.4.8 1 .9 1.6.1 2.1-.5.3-1 .2-1-.3s-.6-.9-1.2-1c-1.7-.1-3.9-.7-6-1.6-.9-.4-2.3-.4-3 0-.7.4-.4-.3.7-1.7 1.5-1.7 1.5-2 .3-1-2.7 2-8.8 2.4-8.8.4 0-1.2-.3-1.3-1.3-.4-1.7 1.4-2.7.4-2-1.7.4-1.2.1-1.1-1 .3-1.4 1.7-1.6 1.7-1.7.4 0-.9-.7-1.9-1.5-2.3-.8-.3-1.4-.2-1.4.2.3 2-.2 3.2-1.1 2.7-.6-.4-.7-1.2-.3-1.8.4-.7-.1-.6-1 .2-1.5 1.2-1.7 1.2-1.1-.3.3-.9.1-1.6-.5-1.6s-1.1.6-1.1 1.4c0 1.1-.8 1.3-2.7.9-1.6-.3-4.2-.6-6-.7-1.7 0-2.9-.4-2.7-.8.3-.4.1-.8-.5-.8-.5 0-1.3.5-1.6 1-.5.8-1.1.8-1.9.1-.9-.7-1.7-.7-2.6.2-1 .9-1.1.9-.6 0 .5-.9-.2-1.1-2.5-.8-1.8.2-4.1-.1-5.2-.7-1.7-.8-1.9-.8-1.4.5.4 1.1.2 1.4-.8 1-.8-.3-1.3-.9-1-1.3.3-.5 0-1.2-.6-1.6-.7-.4-.9-.3-.5.4.9 1.5-.8 2.3-5.4 2.7-3.5.3-4 0-4.1-1.8 0-2.1-.1-2.1-1 .2-.5 1.3-1.5 2.1-2.3 1.8-.7-.3-1.9 0-2.5.6-.9.9-1 .8-.5-.7.5-1.3.4-1.7-.4-1.2-.7.4-1.3.2-1.3-.3-.3-2.6-.4-3-1.1-3.7-.8-.7-.4 2.1.6 4.6.4 1-.1 1.6-1.6 1.7-2.3.1-7.4.9-11.3 1.7-1.1.2-2.7-.2-3.5-.9-1.2-1.1-1.8-1.1-3.4.1-1.1.8-1.5 1.4-1 1.4.6 0 1.5-.5 2.1-1.1.7-.7 1.2-.7 1.5.3.4.8-.4 1.4-2.1 1.5-2.7.3-6.4 1-6.8 1.3-.2.2-.7.3-1.2.4-.5 0-1.3.4-1.7.8-.4.4-1.8.5-3.2.1-1.8-.4-2.9-.1-3.9 1.2-1 1.4-1.3 1.5-1.3.4-.1-1.1-.4-1-1.4.3-.7 1-1.6 1.5-2 1.1-1-1-5.6-1.2-5-.2.2.4 1.4.6 2.6.4 1.1-.3 1.7-.1 1.4.3-.8.7-1.3.8-4.2 1.1-.8 0-1.2.6-.8 1.2.4.7-.1.7-1.6-.1-1.2-.7-2-.8-1.6-.2.3.5-.1 1.3-1 1.6-1.2.5-1.5.2-1-.9.3-.9.2-1.3-.4-1-.6.3-1 1.2-1 2 0 .7-1 1.7-2.2 2.1-1.3.4-2.7 1.2-3.1 1.8-.5.6-.6 0-.2-1.4.6-2.3.5-2.4-.6-.5-2 3.2-4.1 4.3-7.5 4.1-2-.2-3.1.2-3.1 1 0 1 .6 1 2.1.3 2-1 2-1 .2.5-1.5 1.2-2.3 1.3-3.3.4-1-.8-1.2-.7-.8.5.4 1-.1 1.7-1.4 2.2-1.2.3-2.1 1.1-2.1 1.7 0 .5-.6.8-1.4.5-.8-.3-1.7-.2-2 .4-.2.5-.3.4-.1-.3.1-.7.8-1.2 1.4-1 1.7.3 1.3-1.5-.5-2.2-.8-.3-1.2-.2-.9.3.3.5.1 1.2-.5 1.6-.5.3-1 1.6-1 2.7 0 1.2-.3 1.8-.7 1.5-.3-.4-1.7.2-2.9 1.4-1.4 1.3-2.4 1.7-2.9 1-.3-.6-1.2-1.1-1.8-1.1-.7 0-.6.4.3 1 2.3 1.4.4 2.3-2.2.9-2.3-1.2-2.3-1.2-.4 1 1.1 1.1 1.4 2.1.8 2.1-.7 0-1.3-.1-1.5-.3-.2-.1-1.1.6-2.1 1.5-2 2.1-4.1 2.4-3 .5.6-.9.5-.9-.8 0-.8.7-1.8.9-2.3.5-.4-.4-.2.3.4 1.5 1.4 2.7-.3 3.2-1.8.5-1.3-2.2-1.4-.6-.1 1.8.8 1.6.4 2.3-2.3 4.4-3.6 2.7-5.7 3.3-5.7 1.5 0-.5.6-.7 1.2-.3.7.4.9.3.5-.1-1.4-1.6-3.6-1.4-3 .3.4.9.2 1.3-.4.9-.5-.3-1 0-1 .7s.6 1.3 1.3 1.3c.7 0 1-.5.7-1-.3-.6-.1-.7.6-.3 1.4.9.5 2.6-1.5 2.6-.8 0-1.3.4-.9.9.3.5.1 1.2-.4 1.5-.5.4-1.3.1-1.7-.5-.5-.8-.3-.9.6-.4.9.5 1.1.4.6-.3-1.1-1.8-2.9-1.4-2.2.4.7 1.9-2.2 5.7-3.7 4.7-.5-.3-.8 0-.5.7.2.7-1.7 3.5-4.3 6.1-4.5 4.6-6.9 6.3-5.3 3.7.4-.7.3-.8-.5-.4-.8.5-.9 1.2-.2 1.9.6.8.3 2-1 3.6-1.7 2-2.1 2.2-3.6 1-1-.8-1.4-.9-1-.2.4.6.3 1.4-.2 1.7-.5.3-.7 1.5-.4 2.6.4 1.6.2 1.9-1.2 1.3-1.3-.4-1.6-.3-1.1.5.4.7.4 2.1.1 3.2-.5 1.6-.9 1.8-2.5.8-1-.7-1.6-1.6-1.3-2.2.4-.5.1-.6-.7-.1-1.1.7-1 1 .1 1.9 1.7 1.3 1.8 3.8.1 5.8-.6.8-.8 1.9-.4 2.3.4.5.1.5-.5.1-1-.5-1-1.1-.1-2.6 1-1.5 1-2.2 0-3.2-1.1-1.1-1.2-1-.6.5.3.9.1 2.4-.6 3.2-.7.8-.9 1.5-.5 1.5s.1.8-.6 1.7c-1.2 1.4-1.2 1.6.1.9.9-.4.8-.1-.2.7-1 .8-1.8 2.2-1.8 3.1 0 .9-.6 1.9-1.4 2.2-.9.3-1.2 1.2-.9 2.1.5 1.2.3 1.4-.7.8-1-.6-1.2-.4-.7.8.3 1 .2 1.7-.3 1.7-.6 0-1-.5-1-1.2 0-.6-.3-.8-.6-.5-.4.4-.2 1.3.4 2 1.4 1.6.6 2.8-1.4 2-.8-.3-1.4 0-1.4.6s.5 1.1 1 1.1c.6 0 1 .5 1 1.1 0 .6-.9.8-2.2.4-2.3-.7-2.3-.7-.3 1 1.7 1.4 1.7 1.6.3 1.1-1-.3-1.8-.1-1.8.4 0 .6.5 1 1.1 1 .5 0 .7.5.4 1-.5.8-1.2.7-2.3-.2-1.5-1.2-1.6-1.1-.3.5s1.3 2 0 2.8c-.8.5-1.8.9-2.4.9-.5 0-.2.5.8 1.1 1.4.8 1.5 1.4.5 3.2-.6 1.2-1 2.4-.9 2.7.1.3-.8.8-2.1 1.2-1.6.4-1.8.6-.5.7 1.9.1 2.3 1.6.6 2.6-.6.4-.8 1.2-.6 1.9.3.6-.1 2-.8 3-.8 1-1.1 2.3-.9 3 .3.7-.5 1.8-1.8 2.5-1.4.7-1.6.9-.4.6 1.4-.4 1.7-.1 1.1 1.2-.4 1-.9 3.1-1.2 4.8-.3 1.6-.8 3.2-1.2 3.5-.5.3-.7 2.2-.6 4.2.1 2.1-.2 3.5-.6 3.2-.5-.3-.9-.1-.9.5s-.8.8-1.8.5c-1.4-.5-1.4-.4-.2.4.8.6 1.8.8 2.2.6.4-.3.8 0 .8.5 0 .6-.4 1.1-.9 1.1-.4 0-.7 2.3-.6 5 .2 4.4 0 4.9-1.3 3.8-1.3-1.1-1.4-1.1-.7.1.4.8.9 3 1.1 4.8.1 2.5-.2 3.3-1.2 2.9-.8-.3-1.1 0-.7.9.3.8.9 1.2 1.5.9.5-.3.4.4-.4 1.5-1.1 1.8-1.1 2.3.2 3.1.9.6 1 1 .3 1-.6 0-1.1 1.3-1.1 3 .1 1.6.5 2.7 1.1 2.3.5-.3.5.2-.1 1.3-1 2-1 8 0 9 .9.9-.2 3.5-1.2 2.9-.5-.3-1.2 0-1.6.6-.4.8-.3.9.4.5s1.2-.2 1.2.4c0 .6.5.8 1.1.4.6-.3.3.6-.7 2.2-1.7 2.6-1.7 2.8-.1 1.5 1-.8 1.7-.9 1.7-.3 0 .6-.5 1.4-1.1 1.7-.6.5-.4 1.2.8 2.1 1.7 1.3 1.6 1.4-.8 1-1.7-.3-2.6 0-2.6 1 0 .8.4 1.4.9 1.4.4 0 .8-.5.8-1.2 0-.9.3-.9 1.2 0 1.4 1.4 2 4.4.7 3.6-.5-.3-.6-1-.3-1.6.4-.6.3-.8-.3-.5-1.1.7-1 4.3.2 5.4.4.5.5.1.1-.7-.4-.8-.1-.7.7.3 1.4 1.7 1.4 2.1-.1 3.6-1.3 1.4-2.1 1.5-3.2.7-1.3-1-1.3-.9-.1.7 1.4 1.8 1.6 1.8 2.8.1.7-1 1.4-1.5 1.4-1.1.1.4.2 1.1.3 1.6 0 .5.4 1.3.9 1.7.4.4-.1 1.6-1 2.7-1 1.1-1.3 1.7-.6 1.4 1-.7 2.1 1 2.4 3.8 0 .5.5 1.6 1.1 2.2.6.7.8 1.3.4 1.3-.3 0-.1 1.2.4 2.6.6 1.4.6 2.3.1 2-.5-.3-1.1.1-1.4.9-.4.9-.1 1.2.7.9 1.8-.7 3 1.2 1.5 2.2-.8.5-.9.3-.4-.6.5-.9.4-1.1-.3-.6-1.9 1.1-1.4 2.6.8 2.6 1.8 0 2.6 2 2.1 5.2 0 .5.4.8 1.1.8.6 0 .8.3.5.6-.3.4-.1 1.6.6 2.8.6 1.1 1.2 3.6 1.3 5.4.1 1.8.5 3.6.9 4 .5.4.5-.2.1-1.3-.6-1.6-.5-1.7.5-.8 1 1 .9 1.7-.7 3.5-1.5 1.8-1.5 2-.1.9 2-1.5 2.3-.2.5 1.9-1.1 1.2-1 1.2.5 0 1.6-1.2 2-1.2 2.7 0 .5.8.6 1.8.4 2.2-.3.4-.1.8.4.8.6 0 .8 1 .5 2.2-.4 1.9-.3 2 .6.8 1.7-2.5 1.3.7-.5 3.4-1 1.7-1.2 2.6-.4 3.1.6.3 1 .3.9-.2-.3-1.9.2-3.1 1.7-3.7 1.5-.6 1.5-.4.3 1.1s-1.2 1.6.3 1c1-.3 1.7-.3 1.6.1-.1.4.4 2 1 3.5 1.5 3.5 1.5 4.7.1 2.7-.9-1.3-1-1.3-.6 0 .2.8 1.1 1.4 2.1 1.2 1.5-.3 2 .8 1.7 3.7-.2.7.2 1 .8.7.5-.4 1.2-.2 1.5.3.4.5.1 1.3-.5 1.7-.8.5-.9.3-.4-.6.5-.9.4-1.1-.4-.6-1.7 1.1.5 3.6 3 3.6 1.3 0 1.9.7 1.9 2.1 0 1.3.4 1.8 1.2 1.3.6-.4.8-.3.4.4s.1 1 1.4.9c1.1-.1 2-.8 2-1.7 0-1.2.2-1.2.9-.2.7 1.1 1 1 1.5-.3.3-.9.3-2.2-.1-2.8-.3-.7.3-.3 1.5.7 2.4 2.1 2.8 1.6 1.1-1.6-.8-1.5-.8-1.9 0-1.4.6.4 1.1.2 1.1-.5 0-1 .3-1 1.2-.1 2.1 2.1 2.9 1.3 1.2-1.3-1.5-2.3-1.5-2.5 0-1.9.9.3 1.4 1 1.1 1.4-.3.5-.1 1.1.4 1.5.6.3.8 1.2.5 2-.4.8-1 1.3-1.5 1-1.1-.7-3 3-2.1 4 .4.5.2.5-.5.1-.6-.3-1.4-.2-1.8.4-.4.6-1 .8-1.5.5-.9-.5-2.3 2.3-1.6 3.4.2.3-.8 2.2-2.4 4.1-2.4 2.9-3 3.2-4.4 2.1-.8-.7-2.1-1.1-2.8-.8-.9.4-.8.6.3.6.9.1 2.2.8 2.9 1.6 1 1.2.7 1.4-2 1-2.6-.3-2.9-.1-2 1 .9 1 .8 2-.2 3.7-2.1 3.8-9.2 12.7-10.2 12.7-.5.1-.3-.5.3-1.3.8-1 .9-1.6.1-2.1-.6-.4-.9-.1-.8.7.2.7-.3 1.2-1 1-1-.2-1 .2-.3 1.6.8 1.5.5 2.4-1.4 4.2-1.3 1.3-2.2 2.8-1.8 3.4.3.6.3.8-.2.4-.4-.4-1.8.5-2.9 2-1.2 1.6-2.8 2.6-3.9 2.4-.9-.2-1.7.1-1.7.7s.3 1 .8.8c1.9-.6 1.4 1.1-1.2 3.8l-2.8 3 1.7-2.7c1-1.6 1.6-2.8 1.4-2.9-3.1-.6-4-.6-4.6.3-.3.6-.1.8.5.4 1.6-1 2.5 1.3 1.1 3-.6.8-.9 1.7-.6 2 .3.3-.5 1.6-1.8 2.9-1.4 1.2-2.2 2.5-1.8 2.9.4.4-.3.9-1.5 1.3-1.2.3-1.9.9-1.6 1.4.3.5-.2.9-1 .9s-1.8.5-2.2 1.2c-.5.8-.2.9 1.2.4 1.5-.6 1.4-.2-.6 1.6-1.3 1.3-2.8 2.3-3.1 2.3-1.3 0-2.4 1.6-2.4 3.3 0 .9-.6 1.6-1.3 1.4-.9-.2-.6.7.7 2.4 2 2.6 2 5.1-.1 3.8-.7-.5-.8-.2-.4.5.6.9 1.3.8 2.7-.5 1.9-1.7 2-1.7 1.3.1-.6 1.4-.4 1.7.8 1.3 1.6-.6 6.8 3.5 6.8 5.3 0 .6.4.8.9.5.4-.3 1.9.6 3.2 2 2 2.1 2.1 2.7.9 3.4-.8.5-1 1-.5 1 .6 0 1.6-.5 2.3-1.2.9-.9 1.2-.9 1.2 0 0 .7.7 1.2 1.6 1.2.9 0 1.3.5.8 1.2-.3.7 1.1-.5 3.2-2.7s3.7-4.4 3.6-4.9c-.2-.5.4-.3 1.3.4.8.7 1.8 1 2.2.6.3-.3.1-.6-.5-.6-1.9 0-1.4-1.7 1.2-4.5 1.6-1.7 2.9-2.3 4.2-1.9 1.8.6 1.8.6 0-.8-1.3-1-1.5-1.7-.8-2.2.7-.4 1.2-.2 1.2.5 0 .6.9 0 2-1.4s1.9-3 1.8-3.5c-.2-.5 1.1-2.5 2.9-4.5 1.7-1.9 2.9-3.8 2.5-4.2-.3-.3.1-.3 1.1.1.9.3 1.5.9 1.2 1.3-1 1.8 2.7.6 4.2-1.3 1.8-2.1 1.8-2.1-.4-.2-2.1 1.7-2.3 1.7-2.9.2-.3-.9 0-2.4.7-3.3.8-.9 1.3-1.8 1.1-2-.2-.3 0-.8.4-1.1.4-.4.4-.1 0 .5-.4.7-.2 1.3.3 1.3.6 0 1.1-1 1.1-2.2 0-2 .1-2 1.9-.4 1.3 1.2 2.1 1.4 2.6.6.3-.6.1-.9-.5-.8-.7.2-1.4-.5-1.5-1.5-.2-1 .3-1.7 1.1-1.7.9 0 1.2.5.8 1.2-.5.7-.3.8.5.3.9-.5 1-1 .2-1.8-1.8-1.8-1.3-3.1.6-1.6.9.8 1.4.9 1 .2-.9-1.4 3.1-8.5 4.4-7.7.5.3.9.7.9 1 0 .3-.5.2-1-.1-.6-.3-1-.1-1 .4 0 1.6 1.6 1.3 3.1-.6 1-1.1 1-1.4.2-.9-.9.5-1.3 0-1.3-1.6 0-1.3.4-1.9.8-1.3.4.5 1.6 1.7 2.7 2.5 1.9 1.4 2 1.4.2-.6-2.2-2.6-2.2-4.1 0-2.3 1.5 1.3 1.5 1.2.5-.7-1-1.8-.7-2.5 1.5-4.5 1.4-1.3 2.3-1.8 1.9-1.2-.4.7-.2 1.3.3 1.3 1 0 1.5-1.6 1.4-4.6 0-.7.9-.9 2.1-.6 1.9.5 2 .4.6-1.3-.9-1.1-1-1.6-.3-1.1.8.4 1.3.2 1.3-.6 0-.9.3-.9 1 .2 1 1.5 1.1 1.3 1.4-1.8.2-1.9 2.5-6.2 2.6-4.7 0 .6-.6 1.7-1.2 2.4-1.1 1.1-1 1.3.5.7 1-.3 2.1-.6 2.3-.6.3 0 .2-.6-.2-1.2-.4-.7-.3-.9.1-.5 1.5 1.3 1.4 3.6-.1 3-.8-.3-1.4.1-1.4 1.1 0 .9-.4 1.6-1 1.6-.5 0-.7.8-.4 1.7.5 1.5.4 1.6-.5.3-1-1.5-1.2-1.3-1.5 1.2 0 .7-1 1.3-2.1 1.3-1.3 0-2 .7-2 2 .1 2.6-1.6 3.7-3.4 2.2-1.2-1-1.2-.9 0 1.1.8 1.2 1.5 1.8 1.7 1.2.2-.5.8-1 1.3-1 .4 0 .6.8.3 1.8-.5 1.3-.4 1.4.4.4.5-.8.8-2.7.7-4.2-.2-2.1.1-2.7 1.2-2.3.8.3 1.1.9.6 1.2-1.6 1.2-1.2 3 .7 3.6 2 .6 2.4 1.6 2 4.5-.1 1.1.3.9 1.5-.5 1.6-2 1.6-1.9.9.5-.6 2.2-.5 2.3.9 1.2 1.3-1.1 1.6-1 2.2.8.3 1.1 1.1 1.8 1.6 1.5.5-.4 1.2 0 1.5.9.3.8 1.2 1.2 2.1.9 1.3-.5 1.4-.3.3 1.8-1.2 2.2-1.2 2.3.3 1 1.4-1.1 1.8-1.1 2.3.3.3.9 1 1.6 1.6 1.6.5 0 .6-.6.2-1.2-.4-.7.2-.5 1.4.6 1.2 1 1.9 2.3 1.5 2.9-.4.6 0 .8 1 .4 1-.3 1.7-.2 1.7.4 0 .6.4.7 1 .4.6-.4.7.1.3 1.2-.6 1.5-.4 1.6.9.6 1.8-1.5 2.9-.7 2 1.5-.5 1.4-.3 1.5 1 .4 1.3-1 1.7-1 2.2.3.3.9 1 1.4 1.5 1.1.5-.3 1.4.1 2.1.9.7.8 1.7 1.2 2.3.8.6-.3.7-.1.3.5-.4.7-.1 1.2.9 1.2.9 0 1.3.5 1 1-.4.7.3.9 1.9.6 1.7-.3 3.3.3 5.1 2 1.5 1.3 3.2 2.4 3.8 2.3 1.6-.3 6.7 2.2 6.7 3.2 0 .5.7.6 1.5.3 1.2-.5 1.4-.2.8 1.2-.6 1.6-.4 1.7.9.6 1.6-1.3 4.8-.7 4.8 1 0 .5.5.6 1 .3s1-.2 1 .3c0 .6.7 1.3 1.6 1.6 1.5.6 1.5.4.3-1-1.3-1.6-1.2-1.6.8-.4 1.2.8 1.9 1.9 1.5 2.5-.3.5.1.4 1-.3 1.5-1.2 4.8-.7 4.8.7 0 .3 1 .7 2.3.8 1.2.1 4.5.7 7.2 1.3 2.8.7 5.8 1.3 6.7 1.3.9.1 1.5.5 1.2.8-.2.4 0 1 .6 1.4.5.3 1 .1 1-.5 0-.7 1.1-.9 3.3-.4 3.4.7 9.1 1.3 17.2 1.7 4 .2 4.9.6 4.7 1.9-.1.9.2 1.9.8 2.3.5.3.7 0 .4-.8-.7-2 1.5-3.2 2.9-1.7.7.7.7 1 .2.7-.6-.3-1.1.3-1.1 1.4 0 1.7.2 1.8 1.1.6.5-.8 1.4-1.4 1.8-1.5.5 0 1.2-.4 1.5-.8.4-.4.2-.4-.4-.1-.7.4-1.5 0-1.8-.8-.4-1.3-.2-1.3 1.4-.5 1.3.7 2.8.7 4.7-.1 2.3-.8 2.6-.8 1.6.2-.7.7-1.3 1.8-1.3 2.4 0 .5.4.4.9-.3 1-1.7 4.2-2.2 5.9-.9.9.7 1.2.4 1.3-.9 0-1.1.3-1.4.6-.6.2.6 1 .9 1.6.5.6-.4 2.7-.7 4.7-.8 2-.1 4.2-.5 4.9-1 1-.5 1.2-.4.7.3-.4.7-.3 1.2.3 1.2.5 0 1.1.6 1.4 1.3.2.6.3.3.1-.9-.3-1.8.1-2 2.6-1.6 1.7.2 3 0 3-.5s1.7-.8 3.8-.7c2 .1 3.7.3 3.7.4 0 .1.8.3 1.8.5.9.2 1.5-.1 1.1-.6-.3-.5-1-.7-1.5-.4-.5.4-.9.2-.9-.4 0-.5.8-1 1.8-1 2 0 4.3-.4 5.7-1.2.8-.4 4.5-.4 7.8 0 .5.1.6.5.3 1-.4.5.4.7 1.6.3l2.2-.5-2.4-.9c-2.5-.9-2.3-1.7.6-2.2 1.1-.3 2.8-.7 3.9-1.1 1.6-.6 1.7-.5.5.4-1.1.8-1.1 1.1-.2 1.1.7 0 1.5-.6 1.8-1.4.3-.8 1.3-1.7 2.1-2 1.2-.5 1.3-.3.5.6-.8 1-.3 1.3 2.3 1.3 2.2 0 3.1-.4 2.8-1.3-.4-.9-.9-1-1.9-.1-.8.6-1.4.7-1.4.2 0-.5 1.1-1.5 2.5-2.1 3.1-1.4 4.6-1.5 2.5-.2-1 .7-1.1 1-.2 1 .7 0 1.5-.7 1.8-1.5.4-.8 1-1.5 1.6-1.5.5 0 .7.4.4.9-.3.5.1 1.1.9 1.4.9.4 1.2.1.8-1-.7-1.9 1.7-3.5 3.3-2.2.8.7 1.4.6 1.9-.1.3-.6 1.1-.8 1.6-.5.5.4.9-.3.9-1.5 0-1.7.4-2 2.1-1.5 1.5.5 1.9.4 1.4-.5-.7-1.1 2.1-2.5 3.7-1.8.4.2 1.4-.6 2.2-1.8 2.1-3 7.1-2.8 7 .3-.1 1.3.2 2 .6 1.8 1-.6.8-2.5-.4-4.3-.5-.8-.4-1.8.2-2.4.6-.6 1.2-.6 1.7.3.6.8.4 1-.6.4-.8-.5-1-.4-.6 0 .4.5 1.4 1 2.2 1.1 1.1.2 1.2-.2.6-1.5-.7-1.3-.4-2.1 1.2-3.1 1.2-.8 2.5-1.3 3-1.2.4.1.7-.3.7-.9 0-.5.5-.7 1-.4.6.4.7 1.1.4 1.7-.4.7-.2.8.5.4.6-.4.9-1.2.5-1.7-.7-1.2 1.5-4.1 2.7-3.4.4.3 1.1 0 1.6-.7.4-.7 1.5-1.3 2.3-1.3.8 0 1.5-.7 1.4-1.5-.1-.9.7-1.7 1.6-1.7 1.3-.1 1.6.4 1.3 1.8-.3 1 0 1.9.6 1.9.5 0 .8-.7.5-1.5-.5-1.1-.2-1.4 1.2-.9 1.7.6 1.7.5-.1-.9-1.1-.8-1.6-1.9-1.2-2.3.4-.5 1.3-.2 1.8.6.8 1.2.9.9.7-1-.2-1.6.2-2.4 1-2.3.6.2 1.2-.3 1.2-1 0-.8.4-.7 1 .3.8 1.2 1 1.1 1-.6 0-2.5 2.4-4.9 4-3.9.6.4.9.1.8-.7-.2-.9.8-1.3 3.2-1.1 1.9 0 2.8-.1 1.8-.4-2.1-.5-3.2-3.3-1.4-3.3.8 0 1.6-.7 2-1.5.3-.8 1-1.5 1.6-1.5.7 0 .8.6.1 1.8-.7 1.4-.6 1.9.4 1.9.7 0 1.1-.7.7-1.5-.4-1.1-.1-1.3.9-.7.8.5.5-.2-.6-1.5s-1.5-2-.8-1.7c.7.4 1.4-.1 1.8-1.3.3-1.1 1-2 1.5-2 .6 0 .6 1 .1 2.3-.7 1.8-.6 2.4.4 2.4.8 0 1.2-.4 1-.8-.6-.9.6-7.1 1.3-6.5.5.6 3.2-1.9 3.2-2.9 0-.3-.6-.3-1.2.1-1 .5-1 .3 0-.7 1.1-1.2 1.4-1.2 2.3.1.9 1.2 1 1 .6-.7-.3-1.2.1-2.7.9-3.4.8-.6 1.2-1.5.9-1.9-.3-.5.9-.7 2.7-.5 2.6.3 2.9.2 1.6-.6-1.5-.8-1.6-1.3-.6-2.9 1.3-2 3.3-1.7 2.2.3-.4.7-.3.8.1.4.5-.4.9-2 1-3.5 0-2.3.4-2.7 2.6-2.4 1.6.1 3.2-.5 4-1.5 1.3-1.6 1.2-1.7-.3-.4-1 .7-2.5 1-3.4.7-1.6-.6-1.6-.8 0-2.5.9-.9 1.3-2.1.9-2.6-.5-.4 0-.5 1.1-.1 1.4.5 1.7.2 1.2-.9-.4-1.1-.2-1.4.6-.9.8.5.9.2.5-1.1-.6-1.4-.3-1.6 1.2-1.2 1.4.3 1.8.1 1.4-.9-.3-.8-1-1.1-1.7-.7-.6.3-.3-.2.6-1.3.9-1 1.6-2.1 1.6-2.4-.1-.3.6-1.9 1.6-3.5 1.1-2 1.5-2.3 1.1-.8-.3 1.2-.2 2.4.2 2.6.5.3.9-.2.9-1.1.1-.9.5-2.6.9-3.6.7-1.5.5-1.7-.6-1.1-1.2.7-1.2.5-.1-.6 1.1-1.2 1.4-1.2 2.3.1.9 1.2 1 1.2.5-.3-.3-1-.6-2.1-.6-2.3 0-.3-.5-.2-1.2.2s-.8.3-.4-.4 1.5-1.2 2.4-1.2c1.5 0 1.5-.2.2-1-1.1-.7-1.1-1-.2-1 .7 0 1-.5.6-1.2-.5-.7-.3-.8.6-.3 1 .6 1.2.3.8-1.3-.4-1.5-.2-1.9.8-1.5.8.3 1.1 1 .7 1.6-.3.6-.1.7.5.3 1.3-.8.5-3.6-1.2-3.6-.7 0-.7-.3-.1-.8 1-.7 1.7-2.7 1.8-5.1 0-.8.9-1.6 1.9-1.9 1-.2 1.8-.8 1.8-1.3s-.8-.6-1.7-.2c-1.7.5-1.7.5 0-.8 1-.8 1.9-3 2-5.1l.2-3.6 3 1.5 3 1.4-2.7-2.1c-1.6-1.3-2.5-2.7-2.1-3.6.4-1.1.9-1.2 1.9-.3 1.9 1.6 1.8.4-.2-1.5-.9-.9-1.1-1.6-.4-1.6.6 0 .8-.5.5-1-.3-.6-.1-1 .4-1 .6 0 1.1-.7 1.1-1.5 0-.7.8-1.9 1.8-2.5 1.4-.9 1.3-1-.8-.4l-2.5.7 1.9-2.2c2.2-2.4 2.9-5.1 1.5-5.1-.6 0-.9.7-.7 1.6.2 1-.4 1.9-1.2 2.1-.9.3-1.1.1-.5-.4.6-.4 1-1.8.9-3-.1-1.5.3-2 1.4-1.5 1.1.4 1.3.2.6-.9-1.4-2.2-1.1-3.3 1.1-4.7 1.3-.9 1.4-1.2.3-.8-1.3.4-1.6-.2-1.4-2.8.1-1.9.8-4.2 1.6-5.2 1.3-1.6 1.3-1.7-.2-1.1-1.5.5-1.6.2-.8-1.8.5-1.3.7-3.4.5-4.6-.3-1.3.2-3.4 1.1-4.7.9-1.4 1.1-2.1.5-1.8-.6.4-1.1 0-1.1-.9s.4-1.4.8-1.1c.5.3.9-.1.9-.9s-.4-1.2-.9-.9c-.5.4-.6-1.8-.3-4.9.4-3.2.2-6.3-.4-7.5-1.2-2.2-.3-3.6 1.4-2.2.8.7 1.2.5 1.2-.5 0-.8-.5-1.1-1-.8-.6.4-.8 0-.4-1 .3-.9.1-1.9-.5-2.3-.6-.4-.8-.3-.4.4.3.6.2 1.3-.2 1.6-.5.3-.8-.7-.7-2.2.1-1.5-.2-4-.7-5.6-.5-2.2-.3-3.4.8-4.7 1.2-1.3 1.2-1.9.3-2.5-.8-.4-1-.3-.5.4.5.8.1 1-1 .5-1.2-.4-1.4-.8-.6-1.1 1-.3 1-.7 0-2-1-1.2-1-1.4 0-.8.7.4 1.2.2 1.2-.4 0-.6.4-.9.8-.6.5.3.9-.2.9-1 0-1-.4-1.1-1.1-.4-.5.5-1.4 1-2 1-.5 0-.7-.3-.3-.6.3-.4-.1-2-.9-3.6-.9-1.7-1.1-2.7-.6-2.4 1.3.8 2.3-2 1.5-4.1-.5-1.2-.3-1.4.8-.8 1.2.7 1.2.6.1-.7-.8-1-2.1-1.4-3-1.1-1.3.4-1.2.2.3-1.1 1.1-1 1.5-1.5.9-1.2-1.1.6-2.9-2-2.6-3.7.1-.4-.3-.7-.9-.7-.6 0-.9-.6-.6-1.4.3-.7 0-1.9-.6-2.6-1-1-.8-1 .9-.2 1.6.9 2.1.8 2.1-.3 0-.8-.4-1.2-.9-.9-.4.3-.8 0-.8-.5 0-.6-.3-1-.7-1-2 .3-2.4-.2-1.3-1.5.9-1.2.7-1.8-.9-3.2-1.1-1-1.8-2.1-1.5-2.6.3-.4 0-.8-.7-.8-.8 0-.8-.4.1-1.6 1.1-1.2 1.1-1.5-.1-1.2-.8.2-1.3-.3-1.1-1.1.2-.8-.3-1.8-1-2.4-.9-.6-.7-.7.7-.2 1.6.5 1.8.4.7-.7-.7-.7-1.8-1.3-2.5-1.3s-1.2-.7-1.3-1.5c0-1.9 1.6-4.1 2.5-3.5.4.2.8-.2.8-1 0-1.3-.3-1.3-1.7 0-2.2 2-4.4.1-3-2.6.7-1.2.6-2 0-2.4-.6-.4-.8-1.6-.5-2.8.5-1.9.5-2-.5-.4-.6.9-.8 2.2-.5 2.7.3.6.1 1-.4 1-.6 0-1.1-.9-1.1-1.9 0-1.1-.6-2.1-1.2-2.4-.7-.2-1.3-1.5-1.3-2.8-.1-1.6-.6-2.3-1.5-2.1-.8.2-1.2 0-.7-.4.4-.4-.3-1.8-1.5-3.1s-1.8-2.3-1.4-2.3c.5 0 .3-.7-.4-1.5s-1.6-1.3-2-1c-.5.3-1.5-.4-2.3-1.5-.7-1.1-1.7-1.7-2.1-1.2-.4.4-.7.2-.6-.3.1-.6.2-1.7.1-2.5-.1-1.3-.2-1.3-1.1 0-.8 1.3-1.3 1.1-3.2-.9-1.5-1.6-1.6-2-.4-1 1.7 1.3 1.8 1.2 1.1-1-.5-1.7-.4-2.2.6-1.9.8.3 1.3 1.2 1.2 1.9-.2.9.6 1.5 1.8 1.6 1.6.2 1.8-.1.9-1.2-.8-.9-.8-1.5 0-2 .6-.4.9-.1.8.7-.2.8.5 1.2 1.7 1l2-.4-2 1.6c-1.6 1.3-1.7 1.5-.2 1 .9-.3 1.7-.1 1.7.5s.6 1 1.3.8c.6-.1 1.1.4 1 1-.2.7.3 1.4 1 1.4 2.1.2 3.1.5 5 1.3 1.7.8 1.7.9 0 2.2-1.7 1.3-1.7 1.4 0 .8.9-.3 1.7-.1 1.7.5s-.3 1-.7 1c-2.5-.4-3.6.2-2.5 1.3.8.8 1.5.8 2.6-.2 1.3-1 1.7-1 2 .1 1.3 4.1 1.4 4.3 1.5 2.2.1-1.2-.3-2.5-.9-2.8-.5-.3-1-1.1-1-1.7 0-.6 1.4.5 3.1 2.3 1.8 1.9 2.6 2.6 1.9 1.6-1.1-1.5-1-1.7.4-1.1.9.3 1.6 1.4 1.7 2.3 0 1 .3.8 1-.7.5-1.3 1.7-2.6 2.7-2.9 1.2-.3 1.8-1.3 1.7-2.6-.3-3.7.5-5 2.2-3.5 1.6 1.3 5 2.2 3.8 1-.4-.4-1.2-.7-1.8-.7-.7 0-1.1-.8-1.1-1.8.1-.9-.2-1.4-.7-1.1-.5.3-.6-.2-.3-1.1.6-1.4.8-1.4 2.5.1 1.1.9 1.9 1.4 1.9.9 0-.4-1-1.6-2.2-2.6-1.1-1.1-1.5-1.9-.8-1.9.6 0 1-.6.7-1.3-.3-.8-.1-2 .5-2.8.8-1.1.9-1.1.5.2-.3.9.1 1.6.8 1.6 1.5 0 .8-2.7-.9-3.9-.7-.5-.7-.8.2-.8.7 0 1.1-.4.7-.9-.3-.5.1-1.5.8-2.3.8-.7 1.3-2.1 1.1-3.1-.1-.9.5-2.1 1.4-2.7 1.5-.8 1.5-1.1.2-2-1.1-.7-1.1-1-.2-1 .7 0 1.1-.4.7-.9-.3-.5-.1-1.2.5-1.6.6-.4.7-1.1.4-1.7-.5-.7-.2-.8.6-.3 1 .6 1.2.4.7-.8-.3-.9.1-2.1 1.1-2.9 1.5-1.2 1.6-1.1.3.4-.7 1-.9 1.8-.3 1.8 1.8 0 2.2-2.9.6-4.5-1-.9-1.1-1.5-.4-1.5.7 0 .9-.7.6-1.6-.3-.8-.2-1.2.4-.9.6.3 1 .3 1.1-.2 0-.4.3-1.7.5-2.8.3-1.1.6-2.6.6-3.3.1-.6.6-1.2 1.1-1.2.5 0 .7-.9.4-1.9-.3-1.5 0-1.9 1.4-1.6 1.2.3 1.6-.1 1.2-1.1-.3-.7-.9-1.2-1.4-.9-.4.3-.2-.7.6-2.2.8-1.5 1.5-3.2 1.5-3.7 0-.4 1.1-1.7 2.5-2.8 2.6-2 3.3-3.8 1.4-3.8-.5 0-.8.4-.5.9.3.5-.1 1.4-.9 2.1-1.9 1.6-1.9.1 0-2.6.8-1.2 1.2-2.4.8-2.7-.3-.4-.1-1.2.4-1.9.6-.7.9-2.1.8-3.1-.2-.9.1-1.5.6-1.2.5.4 1.7.1 2.6-.5 1.5-.9 1.5-1.1.2-.7-1.2.4-1.6-.1-1.6-1.9 0-2.3 0-2.3 1.4-.7.8 1 1.2 1.3.9.6-.9-1.6.4-4.4 1.7-3.6.6.3.7.1.3-.6-.6-.9-1.1-.9-2.2 0-2.3 1.9-1.6.4 1.2-2.6 1.8-2 2.2-3.1 1.5-3.8-1.4-1.4-1.4-2.7 0-2.7.5 0 .7.4.4 1-.3.6.1.7 1 .4 1.4-.6 1.4-.8-.2-2.1-1.2-1-1.4-1.6-.6-1.9.7-.3.9-1.2.6-2-.5-1.4.6-1.8 3.7-1.5 1.3.2 1.3.1 0-.8-.8-.5-1.8-.7-2.2-.5-.4.3-.5-.2-.2-1 .3-.9.9-1.4 1.3-1.2.3.2.6-1.4.7-3.5.1-2.6.8-4.5 2-5.5 1-.9 1.3-1.3.7-.9-.7.3-1.3.1-1.3-.4 0-.6.5-1.1 1.1-1.1.8 0 .8-.5-.1-1.5-.7-.8-1-2-.7-2.7.3-.9-.6-1.3-2.9-1.4-1.8-.1-3.5.3-3.7.9zm.3 29.1c0 .2-.8 1-1.7 1.7-1.6 1.3-1.7 1.2-.4-.4 1.3-1.6 2.1-2.1 2.1-1.3zM249 80.9c.9.1.4.8-1.2 1.7-3.8 2-3.6 2.8.2.9 1.7-.9 3-2 3-2.6 0-.7.6-.6 1.7.2.9.8 1.4.9 1 .2-1-1.5 1.7-1.1 3.9.7 1.6 1.3 1.7 1.3 1.2-.1-.4-1.1 0-1.5 1.5-1.4 1.2.2 2.1.7 2 1.3-.1.5.7 1.2 1.8 1.5 1.6.4 1.8.3.8-.9-.9-1.1-.8-1.4.5-1.4.9 0 1.6.4 1.6.9s.7 1.2 1.6 1.5c1.4.5 1.5.4.4-.9s-1-1.4.4-.9c.9.3 1.6 1 1.6 1.5s.5.9 1.1.9c.6 0 .8-.7.5-1.6-.3-.8-.2-1.2.4-.9 1.2.8 4.9 1.7 7.2 1.8 1.3.1 1.6.7 1.3 2.2-.5 1.6-.3 1.6.8-.4 1-1.7 1.6-2 2.2-1.1.4.6 2 1 3.6.8 1.6-.3 2.7 0 2.6.6-.1.6 1.2 1.1 2.8 1.2 1.7.1 3.5.2 4 .4.6.1 1.4.2 1.8.1.5-.1.5.4.1 1-.5.8-.2 1 .9.6.9-.3 2.1.1 2.9 1.1 1.1 1.3 1.1 1.4-.1.7-1-.6-1.2-.4-.6.5.6 1 1 1 1.9-.2 1-1.3 1.5-1.4 2.9-.3.9.6 1.4 1.4 1.1 1.7-.3.4 0 .9.7 1.4.7.4 1 .3.5-.4-.3-.6-.2-1.3.4-1.7.5-.3 1 .1 1 1.1 0 1.3.3 1.4 1.5.4 1.4-1.2 1.9-.7 1.6 1.3-.1.5.9.5 2.1.1 2.1-.6 2.2-.5.8 1.1-1.4 1.7-1.4 1.7.9.6 2-1.1 2.6-1 3.7.3.8.9.9 1.1.2.6-1.8-1.5-2.6-1.2-3.8 1.2-1 2.2-1 2.2.4.4 1.3-1.6 1.7-1.6 3.5-.4 1.2.8 1.9 1.7 1.6 1.9-.2.3.7.5 2 .5s2.2-.2 1.9-.6c-.3-.3-1.1-.5-1.7-.5-.5 0-1.2-.7-1.4-1.5-.4-1.3-.3-1.3.6 0 .6.8 1.1 1.1 1.1.6 0-.5.6-.3 1.3.3.8.6 1.7.8 2 .4.4-.3.7-.4.7 0 0 .3-.7 1.3-1.6 2.1-.8.9-1.1 1.6-.5 1.6.5 0 1.3-.4 1.6-1 .4-.6 2.3-.1 4.8 1.2 2.3 1.2 4.6 2.2 5 2.3.5 0 1.5.8 2.2 1.9.9 1.1 1.9 1.5 2.7 1 1-.6 1-.4-.1.9-1.2 1.5-1.2 1.7.3 1.1 1.1-.4 2.6.2 4 1.5 1.2 1.2 2.6 1.8 3.1 1.4.4-.5.5-.2.1.4-.4.8-.1 1.3.8 1.3.8 0 1.8.9 2.1 2 .3 1.1 1.1 2 1.6 2 .6 0 .7-.5.3-1.2-.4-.6-.3-.8.4-.4.6.3.9 1.6.7 2.8-.4 1.7-.2 1.9.7 1 .7-.7 1.7-1.2 2.3-1.2.5 0 .4.4-.4.9-1.1.7-.9 1 .8 1.6 1.1.3 2.1 1.1 2.1 1.6 0 .6.4.8.9.4.5-.3 1.3 0 1.7.6.4.7.3.9-.3.6-.6-.4-.8.4-.5 2 .3 1.8.1 2.4-.7 1.9-.6-.4-1.1-.2-1.1.3 0 2.3 2.1.9 3.4-2.3.8-1.9 2.4-3.9 3.5-4.6 1.2-.6 1.8-1.6 1.5-2.2-.4-.7-.3-.8.4-.4 1.1.6 1.6-.6 1.3-2.7 0-.4.4-.7.9-.7.6 0 1 .5 1 1.1 0 .5.5.7 1 .4.8-.5.7-1.1-.1-2.1-1-1.2-1-1.4.1-1.2.7.2 1.4-.2 1.7-.9.3-.7-.4-1-1.9-.7-2 .4-2 .3-.4-.4 1.4-.6 1.6-1.1.8-1.6-.7-.4-1.6-.4-2.2-.1-.6.4-.7-.1-.3-1.2.6-1.5.4-1.6-.9-.6-1.8 1.5-2.9.7-2.1-1.5.5-1.1.2-1.4-1-.9-1.5.6-1.6.3-.7-1.3 1.3-2.4.7-2.6-1.4-.5-1.3 1.3-1.5 1.3-2.1-.5-.4-1.1-1.1-1.7-1.7-1.4-.6.4-.8.2-.4-.4.3-.6-.7-1.8-2.4-2.8-3.9-2.3-4.3-3.7-1.9-6.3 2.2-2.4 4.1-2.8 3.3-.7-.3.8 0 1.7.5 2.1.6.3.8 1.1.5 1.7-.4.6.1.8 1.5.3 2.3-.7 2.8.4 1 2.2-.8.8-.8 1.3 0 1.7.6.4 1.1.1 1.1-.6 0-1 .3-.9.9.2.6.8.7 1.8.5 2.2-.3.4.3.5 1.2.1 1.4-.5 1.6-.3 1.1 1.3-.7 1.9-.7 1.9.8 0 .8-1.1 1.5-1.5 1.5-.9 0 .5 1 1.5 2.3 2.2l2.2 1.1-2.2-.6c-1.8-.4-2.2-.2-1.7 1 .3.9 1 1.3 1.5 1 .5-.3 2.3.9 3.9 2.6 3.3 3.5 4 5 1.3 2.9-1.5-1.2-1.6-1.2-1 .3.4 1.2-.1 2.5-1.4 3.7-1.2 1.1-1.8 2.5-1.4 3.3.3.7 0 .5-.8-.5-1.3-1.5-1.5-1.6-2.1-.2-.3.8-.1 1.5.4 1.5.6 0 1 .4 1 .9 0 .6-.9.8-2.1.6-1.5-.3-1.9 0-1.5 1 .3.9-.1 1.2-1.3 1-1.8-.3-2 .2-2.3 5.7-.2 2.3-.5 2.5-2.3 1.6-1.7-1-1.8-.9-.8.4 1 1.1.9 1.9-.3 3.6-.8 1.2-1.9 2-2.4 1.7-.7-.4-2.3 3.1-2.1 4.7 0 .4-.6.5-1.4.2-.8-.4-1.2-1-.9-1.5.3-.5-.2-.6-1-.3-1.4.5-1.4.8-.1 2.1 1.7 1.6 1.1 3.3-1.1 3.3-.8 0-1.4.6-1.4 1.4 0 2.2-1.7 2.8-4.2 1.6-2.1-1-2.1-1 .2.9 2.4 2 2.4 2 .3 1.6-2.5-.4-4 1-2.2 2.1.8.4.9.3.5-.4-.4-.8-.2-1 .8-.6 1.1.4.7 1.2-1.6 3.5-1.7 1.6-3.5 2.9-3.9 2.9-.5 0-.9.5-.9 1.1 0 .5.6.7 1.3.3.9-.5.9-.4.1.5-.9.9-1.7 1-3.1.2-1.5-.7-2-.7-2 .4 0 .7.6 1.1 1.4.8.7-.3 1.3 0 1.3.6s-.4 1.2-1 1.2c-.5.1-1.4.2-1.9.3-1.7.2-2.2 1.4-1 2.2.8.5 1 .3.4-.6-.5-.9-.4-1.1.4-.6.6.4.9 1.2.5 1.7-.3.5-1 .7-1.5.4-.5-.4-.9.1-.9.9s-.4 1.7-.9 2c-.5.4-.8-.5-.7-1.9.2-1.3-.1-2.2-.5-1.9-.5.3-.7 1.8-.5 3.4.2 1.7-.3 3.5-1.1 4.1-1 .9-1.2.9-.8-.3.4-.9 0-1.5-.9-1.5-1.1 0-1.2.6-.5 2.6l1 2.5-2.2-1.9-2.2-2 1.2 2.3c1.1 2 .8 2.8-1.9 6.2-1.8 2.2-3.5 3.8-4 3.5-1-.6-2.2 2.4-1.4 3.6.3.5.2.9-.3.8-2.1-.4-3.3.2-3.3 1.6 0 .9-.7 1.8-1.5 2.1-.8.4-1.5 1.2-1.5 1.9 0 2.1-1.9 2.8-3.7 1.3-1.5-1.2-1.5-1.1-.3 1.1 1.1 2.2 1 2.7-1.3 4.7-1.4 1.2-2.4 2.4-2.2 2.5.1.2-.3 1-1.1 1.7s-1.4.8-1.4.2c0-.5-.5-1-1-1-.7 0-.7.6 0 2 1 1.8.7 2.4-1.2 2.1-.5 0-.8.6-.8 1.4 0 .8-.5 1.5-1.1 1.5-.5 0-.7-.6-.4-1.3.4-.6 0-.4-.8.5-.8 1-1.6 1.6-1.8 1.3-.3-.2-.5.4-.5 1.5 0 1 .5 1.6 1 1.3.5-.4.6-.1.2.6-.5.7-1.4 1-2.2.7-.8-.3-1.1 0-.7.9.8 2.2-6.2 8.9-8.5 8.1-1.4-.5-1.4-.3.2.9 1.1.8 1.4 1.5.7 1.5s-.9.4-.6 1c.3.6-.1.7-.9.4-.9-.3-1.3-1.1-.9-1.7.3-.6.1-.7-.6-.3-.8.5-.9 1.2-.2 2s.6 1.7-.1 2.6c-.8 1.3-.9 1.3-.5-.1.3-.9-.1-1.6-.8-1.6-.7 0-1 .8-.7 2 .3 1.2-.1 2.3-1.2 2.9-.9.5-1.3 1.4-1 2 .5.7.2.8-.6.3-1-.6-1.2-.4-.7.8.4 1 .2 1.6-.6 1.4-.7-.1-1.1.4-.9 1.1.1.8-.1 1.1-.6.8-.9-.5-4.3 2.9-3.6 3.6.2.3-.3.5-1.1.5s-1.3-.3-1-.5c.3-.3 0-1.1-.5-1.7-.7-.9-.5-1.7.7-2.6.9-.8 1.4-.9 1-.2-.4.6-.2 1.5.4 1.9.8.5.9.3.4-.6-.5-.8-.4-1.1.2-.7.6.4 1-.1.9-1 0-.9.6-1.8 1.4-2.1 1.3-.5 1.3-.3 0 1.4-1.1 1.4-1.1 1.6 0 .7.7-.7 1.5-2.3 1.7-3.5.2-1.3 0-1.8-.4-1.2-2.8 3.8-8.9 5.1-7.5 1.6.5-1.5.4-1.5-1.2 0-1.9 1.9-5.6 2.4-5.6.8 0-.5.8-.7 1.8-.4 1.3.5 1.4.4.3-.4-.8-.6-2.6-.8-4-.6-2.6.3-2.6.3-.3-.8 1.2-.6 2.2-1.5 2.2-2s-.4-.7-.9-.3c-.6.3-1.4-.3-2-1.2-.6-1-1.1-1.3-1.1-.8 0 .6.5 1.6 1.2 2.3.9.9.8 1.2-.5 1.2-.9 0-1.7-.7-1.7-1.5 0-.9-.6-1.2-1.5-.9-1 .4-1.5 0-1.5-1.1 0-.9.5-1.3 1-1 .6.3 1 .1 1-.4 0-1.5-1.3-1.4-2.9.1-1.1 1-1.3 1-.7 0 .6-1.1-.4-1.6-2-1-1 .5-3.2-4.6-2.9-6.9.2-1.7-.1-2.1-1-1.3-.9.7-1.6.6-2.4-.3-.6-.8-1-1.6-.8-1.8.1-.2-.2 0-.8.5-.7.5-.6 1 .3 1.3.6.3 1 .9.7 1.3-.3.5 0 1.2.6 1.6.8.4.9.3.5-.4s-.2-1 .7-.6c.7.2 1.4 1.1 1.4 1.9 0 1.8-2.5.5-5-2.5-1.4-1.7-1.6-2.5-.6-3.6.7-.8.7-1.4.1-1.4-.5 0-1.3.7-1.6 1.6-.5 1.3-.9 1.4-2.1.4-1.2-1-1.3-1.6-.3-2.7.9-1.2.9-1.4-.3-1.3-2.9.5-5 0-4.4-1 .3-.6-.1-1-.9-1-.9 0-1.6-.5-1.6-1.1 0-.7.9-.9 2.1-.6 1.7.5 1.9.3 1-.6-.9-.9-1.7-.8-3.3.2-1.9 1.2-2 1.1-1.5-.9.3-1.2.3-1.9 0-1.6-.4.3-1.3 0-2.2-.7-1.4-1.1-1.5-1-.1.7 1.4 1.8 1.4 1.8-.7.6-1.2-.8-1.9-1.8-1.6-2.3.3-.5 0-.7-.8-.5-.8.3-2.3-.2-3.4-1.1-1.2-.9-1.5-1-.7-.1 1.7 1.9 1.5 4-.4 4-.9 0-1.2-.5-.8-1.3.4-.6.3-.8-.2-.4-.4.4-.9 1.8-.9 3 0 1.7-.5 2.1-2.5 1.9-2.4-.3-2.4-.2-.5 1.3 1.1.9 1.5 1.4.8 1.1-.6-.4-1.5.3-1.8 1.4-.5 1.7-.9 1.9-2.1.9-1.2-1-1.3-.9-.8.5.7 1.7-3 7.4-7.3 11.2-1.2 1.2-2.3 2.6-2.3 3.2 0 .6-.4 1.3-.9 1.6-.5.4-.8-.5-.7-1.9.2-1.3-.1-2.2-.5-1.9-.5.3-.7 1.8-.5 3.4.2 1.7-.3 3.5-1.1 4.1-1.1 1-1.2.8-.7-.6.5-1.3.4-1.6-.5-1.1-.6.4-1.1 1.7-.9 2.9.2 1.4-.3 2.3-1.6 2.5-1.1.3-1.6 0-1.1-.7.3-.6 1.1-.9 1.6-.6.5.3.6-.1.2-1.1-.5-1.5-.7-1.5-1.5 0-.5.9-1.4 1.3-2.1.9-.7-.4-.4.6.7 2.1 1 1.6 1.4 2.6.8 2.2-.5-.3-1.2.1-1.6.9-.3.9-1.2 1.2-2.3.8-1.5-.6-1.6-.4-.6.8 1 1.2.6 2.2-2.3 5.2-1.8 2.1-3.4 4.2-3.4 4.7s-.7.6-1.7.3c-1.2-.5-1.4-.3-.8.7.6 1 .4 1.2-1.1.6s-1.6-.4-.7.5c.9.9.9 1.5-.2 2.5-1.8 1.9-3.1 1.8-1.5-.1.7-.9.8-1.5.2-1.5-.5 0-1.3.7-1.6 1.6-.3.8-1 1.3-1.5 1-1.1-.7-.8 2 .4 3.1.4.4.5.2 0-.6-.6-1-.4-1.2.5-.6s1.1.4.5-.5c-.5-.9-.4-1.1.3-.6.9.5.9 1.2 0 2.6-.7 1-1.7 1.6-2.3 1.2-1.7-1.1-3.5-1.1-3.5 0 0 .6.7.8 1.5.4.8-.3 1.5-.1 1.5.4 0 .6-.5 1-1.1 1-.5 0-.7.6-.3 1.2.5.8 0 .7-1.1-.2-1.7-1.4-1.8-1.4-.6.8.9 1.8.9 2.2-.1 2-.7-.2-1.2.3-1 1 .1.8-.2 1.1-.7.8-.5-.4-1.2-.2-1.6.4-.3.5 0 1 .7 1 1 0 .9.3-.2.9-.8.6-1.8.7-2.2.5-.4-.3-.8.2-.8 1 0 .9-.5 1.6-1.1 1.6-.5 0-.7-.5-.3-1.2.4-.7.3-.8-.4-.4-.9.5-.9 1.3-.2 2.6.8 1.6.8 1.8-.5 1.4-.8-.4-1.5-1.1-1.5-1.7 0-.6-.3-.8-.6-.5-.3.4-.1 1.6.6 2.7 1 2 .9 2.1-1.3 1.6-1.5-.4-2.8-.2-3.2.6-.5.8-.4 1 .3.5 2.9-1.8 2.9.8.1 4.4-1.8 2.2-3.5 3.7-3.9 3.5-.4-.3-1 .5-1.4 1.8-.6 2.4-5.1 7.7-6.6 7.7-.5 0-.7-.7-.4-1.5.4-.8 1-1.3 1.4-1 .5.3 1.1.1 1.4-.4.4-.5-.2-.8-1.1-.6-1 .2-2.1.4-2.5.4-.8.1-.5 2.2.6 4 .7 1.1.5 1.3-.9.7-1.6-.6-1.6-.4-.4 1.1.9 1.1 1 1.4.2.9-.7-.4-2.1-.2-3 .4-1.7 1.1-1.7 1.1 0 .6.9-.3 1.7-.1 1.7.4 0 .9-1.4 1.4-3.2 1.1-.4 0-.4.7-.1 1.6.5 1.2.3 1.4-.7.8-.8-.5-1.1-.3-.8.6.3.8-.5 2.2-1.6 3.2-1.2 1-2.1 2.4-2.1 3-.1.7-.6 1.1-1.3.9-.7-.1-1.2.3-1.2.9 0 1.6-2.9 4.1-4 3.4-1.5-.9-5.4-1.5-4.6-.7.4.4 1.2.8 1.7.8.5.1 1.3.2 1.8.3.5 0 1.2.8 1.5 1.7.3.8.2 1.2-.4.9-.6-.3-1 .1-1 .9s-.9 1.8-2 2.1c-1.1.4-1.8 1.1-1.5 1.6.4.5-.1.9-1 .9s-1.4.4-1 1c.3.5-.3 1.8-1.5 3-1.1 1.1-2 2.5-2 3.1 0 .5-.4.8-.9.5-.5-.3-1.2.1-1.5 1-.3.8-1 1.3-1.5 1-1.1-.7-2.3 2.2-1.6 3.5.4.5-.2.6-1.1.2-1.2-.4-1.5-.3-1 .5s.2 1-.8.6c-.9-.3-1.6-.2-1.6.4 0 .6.6 1.2 1.3 1.4.6.3-.3.5-2.1.5s-2.8-.3-2.2-.7c.7-.4 1.1-1.1 1.1-1.6-.1-.5.4-1 .9-1 .6-.1 1.3-.2 1.8-.3 1.4-.2 1-5.6-.7-8.1-3-4.2-3.2-4.8-2-5.6.8-.4.9-.3.5.4s-.2 1.2.4 1.2c.6 0 .9.4.5.9-.3.5 0 1.3.7 1.7.7.4 1 .4.6-.1-.4-.4-.2-1.5.5-2.3.8-1 .8-1.3.1-.9-.7.4-1.5 0-1.8-.9-.3-.9-1.3-1.4-2-1.1-1.9.7-2.8-1.7-1.3-3.3.9-1 .8-1.2-.5-.7-2 .7-2.5-.9-.5-1.6.6-.3.2-.6-1-.6-2.6-.1-2.9-1.1-1.1-3 1.1-1.1 1-1.3-.5-.8-1.5.6-1.7.3-1.2-1.2.3-1.1 0-2.3-.6-2.7-.8-.4-.9-.3-.5.4s.5 1.2.2 1.2-1-.9-1.5-1.9c-.8-1.4-.6-2.5.9-4.4 2.9-3.6 2.5-4.3-.6-1-1.4 1.5-2.3 2.3-2 1.6.4-.6.2-1.4-.4-1.8-.6-.4-.7-1.2-.3-1.8.4-.6.7-2.5.8-4.2 0-1.9.5-2.9 1.4-2.7.7.1 1-.2.6-.8-.5-.8-1.1-.7-2.1.1-1 .8-1.4.8-1.4 0 0-.6-.5-1.1-1.1-1.1-.8 0-.7.5.1 1.5 1.4 1.7.8 3.1-.9 2.1-.5-.4-.8-1.8-.5-3.1.2-1.4 0-2.5-.6-2.5s-.9-.4-.5-.9c.3-.5.1-1.2-.3-1.5-1.3-.8-.9-5.1.4-4.9.6.1 1.1-.5 1.1-1.3 0-1-.4-1.1-1.1-.4-1.7 1.7-2.9 1.1-1.5-.7.8-.9.9-1.4.3-1-1.8 1.1-2.6-3.6-.9-4.9 1.6-1.2 2-2.5.8-2.3-2.8.5-3.5-.1-2.2-1.8 1.2-1.4 1.2-1.6-.2-1.1s-1.6-.1-1.4-4.3c.2-3.3-.1-4.7-.9-4.3-.6.3-.2-.2.8-1 1.7-1.4 1.8-1.6.3-1.6-1.8 0-2.3-2.5-.7-3.5.5-.3 1-1.1 1-1.7 0-.7-.4-.7-1.3 0-.9.8-1.2-.3-1.2-4.9 0-3.2.3-5.9.6-5.9 1.3 0 1.8 1.4.8 2.6-.7.9-.6 1.4.3 2 .7.4 1 .3.5-.1-.4-.5.1-1.7 1-2.7 1.3-1.5 1.4-1.9.3-1.6-1 .2-1.4-.6-1.5-2.4 0-1.4-.4-3-.8-3.4-.5-.5-.6.4-.3 1.9s.1 2.5-.3 2.3c-.9-.6-.5-12.2.4-13.7.4-.5 1.1-.6 1.7-.3.7.4.8.2.4-.5-.4-.6-1.1-.9-1.6-.6-.5.3-.8-.4-.7-1.5.1-2.2 1.3-2.7 2-.8.4 1 .6 1 .6.1.1-.7-.5-1.8-1.3-2.5-.9-.9-1.1-2-.5-3.5.5-1.3.6-2.3.3-2.3-.4 0-.1-.6.5-1.3.6-.8.8-1.7.5-2-1-.9.6-2.8 1.8-2.1.7.4.6.9-.2 1.4-.9.5-.8.9.3 1.3s1.4-.2 1.2-2.5c-.2-1.6-.7-3.4-1.3-4-.7-.7-.6-2.5.4-5.7.9-2.5 1.6-5.3 1.8-6.1.3-1.8 1.4-4.9 2.6-7.2.6-1.1.5-1.8-.3-2.1-.7-.3-.4-.6.7-.6 1.2-.1 1.6-.6 1.2-1.6-.7-1.9.3-4.5 1.6-4.5.6 0 .6.6-.1 1.4-.9 1-.9 1.6-.1 2.1.6.4.9 1.4.5 2.3-.3.9-.2 1.3.2.8 1.1-1.1 1.3-7.6.1-7.6-.5 0-.4-.9.2-2 .6-1.1.7-2 .3-2-.4 0-.1-.6.7-1.3.8-.7 1.6-2.1 1.8-3.2.2-1.1 1.1-3.1 2-4.5.9-1.4 1.7-3.1 1.8-3.9.2-.8 1.1-2.1 2-3 1.7-1.5 1.7-1.5.5.1-.8 1-1 1.8-.5 1.8s.3.4-.5.9c-.9.6-.5.8 1.4.8 2.3.1 2.5-.1 1.1-.9-1.3-.7-1.5-1.3-.6-2.3.7-.8.9-1.9.5-2.5-.3-.5-.1-1 .4-1 .6 0 1-.3.9-.8-.2-1.3 1.4-4.2 2.5-4.2.5 0 .2 1-.9 2.2-1.3 1.6-1.4 1.9-.2 1 1.3-1 1.7-1 2.1 0 .3.7.5.4.4-.7-.2-1.1-.6-2.6-1.1-3.3-.4-.8-.3-1.1.5-1 .6.2 1.4-.3 1.7-1.1.3-.9 0-1.1-.9-.6-.8.4-.2-.5 1.4-1.9 1.5-1.5 2.5-3.1 2.2-3.6-.3-.6.1-.7 1-.4.9.4 1.5.3 1.3-.2-.4-1.4 2.3-5.7 4.9-7.7 1.3-1 2-2.3 1.7-2.9-.4-.6-.3-.9.2-.6.5.3 1.5 0 2.2-.8.7-.8.9-1.4.5-1.4s0-.5 1-1.1c2-1.2 4-.3 3.1 1.4-.4.7-.3.8.2.4.5-.5.9-1.4.9-2 0-.7.8-1.1 1.8-1.1.9.1 1.7-.3 1.7-.8 0-.6-.9-.8-2-.5-1.3.3-2 0-2-.9 0-.8.6-1.1 1.5-.8 1.1.5 1.4.1.9-1.2-.5-1.7-.4-1.7 1.2.1 1.6 1.9 1.6 1.9 1 .1-.7-2.1 1.8-5.6 4.1-5.6.8 0 1.1-.5.7-1.2-.4-.7-.3-.8.4-.4s1.2.2 1.2-.3c0-.6.5-1.1 1.1-1.1.5 0 .7.6.3 1.2-.6 1-.5 1 .8.1.8-.7 1.9-.9 2.4-.5.4.4.2-.1-.5-1.1-1.5-1.9-2.6-2.3-1.5-.5.4.7.3.8-.5.4-.6-.4-.9-1.2-.5-1.7.3-.5 1-.7 1.5-.4.5.4.9.1.9-.6s.3-1 .6-.6c.3.3 1.7-.6 3.1-2.1 1.3-1.5 2.2-2 1.8-1.2-.4.8.3.3 1.5-1.3 1.2-1.5 2.6-2.5 3.1-2.1.5.3 2.3-.9 4-2.6 1.7-1.7 3.4-2.8 3.7-2.5.3.3 1.6-.5 2.9-1.7 1.3-1.2 3.2-2.2 4.3-2.3 1.8-.2 1.9 0 .5 1.5-.8.9-1.5 2-1.5 2.5s.6.1 1.3-1c.8-1 1.8-1.5 2.4-1.2.6.4.8-.3.5-1.8-.2-1.4 0-2.5.7-2.5.5 0 .8.8.4 1.7-.5 1.5-.3 1.4 1-.2.8-1.1 1.3-2.4 1-2.9-.4-.5-.1-.6.6-.2.7.5 2 .1 3-.8 1.9-1.7 4.7-1.3 5.4.7.2.7.2.1 0-1.2-.4-2.1-.2-2.3 1.1-1.2.9.8 1.6 1 1.6.5s.5-.2 1 .6c.7 1.2.9 1 .7-.7-.1-1.7-.4-1.9-1.4-1.1-.9.7-1.3.7-1.3-.1 0-.6.6-1.2 1.3-1.3.6 0 1.7-.2 2.2-.2.6-.1 2-.7 3.3-1.4 1.2-.7 2.2-.9 2.2-.5s.4.2.9-.5c.6-1.1 1.2-1 2.6.4 1.7 1.7 1.7 1.7 1.1-.3-.5-1.6-.3-2.1.8-1.9.9.1 1.9.6 2.3 1.1.4.4.2.5-.6 0-1-.5-1.2-.4-.7.4 1.1 1.7 2.6.3 1.9-1.7-.6-1.5-.4-1.5 2.2.2 2 1.3 2.6 1.4 1.8.4-.7-.8-1-1.8-.6-2.2.4-.4 1.3.4 2 1.6l1.4 2.3-.7-2.5c-.6-2.3-.6-2.4 1.1-1 1.7 1.4 1.8 1.3 1.2-.2-.4-1.3-.1-1.6 1.5-1.3 1.2.3 2.7 0 3.4-.6.8-.6 2.3-.7 3.6-.3 3.6 1.2 4.9 1.3 4.2.3-.3-.5-.9-.7-1.4-.4-.5.3-1.1.2-1.4-.3-.2-.4.7-.8 2.2-.9 1.5 0 3.9-.4 5.5-.7 1.5-.4 2.7-.2 2.7.3 0 .6-1 .8-2.1.6-1.2-.3-1.9-.2-1.6.1.3.3.9.6 1.4.6 1.5 0 3.3 2 2.6 3.1-.3.5-.1.7.5.3.6-.3.9-1.7.6-3-.3-2.1-.1-2.3 1.8-1.8 1.1.3 1.9.1 1.6-.4-.5-.8 6-1 11.2-.5zm131.4 28.7c.3.8.2 1.2-.4.9-.6-.3-1-1-1-1.6 0-1.4.7-1.1 1.4.7zM371 128c0 .5-.5 1-1.1 1-.5 0-.7.5-.3 1.2.4.7.3.8-.4.4-.6-.4-.9-1.3-.5-2.1.6-1.7 2.3-2 2.3-.5zm-278 4c0 .5-.5 1-1.1 1-.5 0-.7-.5-.4-1 .3-.6.8-1 1.1-1 .2 0 .4.4.4 1zm312.6 9.2c1 1.3 1.5 2 1 1.6-.5-.4-1.5-.3-2.3.3-.9.9-1.3.8-1.3 0 0-.6.6-1.1 1.3-1.2 1 0 1-.2 0-.6-.7-.2-1.3-.9-1.3-1.4 0-1.4.5-1.1 2.6 1.3zm-4.1 3c-.1 3-2.4 8.7-2.5 6.2 0-.5.5-1.5 1.2-2.2.8-.8.8-1.2.1-1.2-.6 0-1.6.7-2.3 1.5-.7.8-2 1.4-2.9 1.4-1.3-.1-1.3-.2.2-.6.9-.2 1.5-.9 1.1-1.4-.3-.5 0-.8.8-.7.7.2 1.2-.5 1.2-1.4-.1-1 .4-1.4 1.2-1.1.8.3 1.4 0 1.4-.6s-.6-1.1-1.2-1.1c-.9 0-.8-.4.2-1 .8-.5 1.5-1 1.6-1 .1 0 0 1.5-.1 3.2zm-3.5 7.9c0 .5-.6.8-1.2.6-.7-.1-1.2.4-1 1 .1.7-.3 1.3-.9 1.3-.6 0-.9.7-.5 1.5.3.8.2 1.4-.2 1.4-2-.3-3.2.2-2.7 1.1.4.6 1 .8 1.5.5 1.7-1.1 2 1.4.3 2.7-1 .7-1.9 2-2.1 2.8-.2 1 .4.7 1.8-.8 2.3-2.5 4-3.1 2-.7-1 1.3-.9 1.5.9 1.5 1.1 0 2.1.4 2.1 1 0 .5-.8.7-1.7.4-1.5-.5-1.6-.4-.3.5 1 .7 1.1 1.4.5 1.8-.6.5-.2 1.6 1.2 3 1.3 1.2 2.3 2 2.3 1.7 0-.3.6.1 1.4.8 1.1 1 1.1 1.6.2 2.7-.9 1.2-.8 1.3.9.7 1.1-.4 1.7-.4 1.3-.1-.3.4 0 1.8.8 3.3.9 1.7 1 3 .3 3.8-.7.8-.5 1.1.8 1 1 0 1.8.4 1.8 1.1 0 .6.3 1.5.7 1.8.4.4.3 1.6-.3 2.6-.5 1.1-.6 1.9-.2 1.9.4 0 .1.5-.7 1-1.3.8-1.2 1 .4 1 1.2 0 1.6-.5 1.3-1.5-.4-.8-.1-1.7.5-2.1.6-.4.8-.3.4.4-.3.6-.2 1.4.4 1.7.8.5.7 1.2-.2 2.3-.7.9-.8 1.3-.2.9.7-.4 1.4.2 1.7 1.3.3 1.1.1 2.3-.4 2.6-.6.3-.5 1.1.2 2 .6.7 1.5 1.1 2 .9.4-.3.6.6.3 2.1s-.1 2.3.5 2c.6-.4.8.2.6 1.4-.2 1.1 0 2.2.5 2.5.5.3.6 1.3.3 2.1-.3.9 0 2 .8 2.6 1.1.8 1.1.9-.2.5-.9-.3-1.6.1-1.6.8 0 .7.6 1.1 1.3.8.8-.3 1.1.2 1 1.4-.2 1-.1 2.2.3 2.8.3.5.7 2.1.7 3.5.1 1.4.3 2.5.4 2.5.2 0 .3 1.2.4 2.7.1 1.5-.2 2.4-.6 2.2-.4-.3-.8 0-.8.5 0 .6.4 1.1.9 1.1s1.2.7 1.5 1.6c.3.8.2 1.3-.3 1-.5-.3-1.1.1-1.5.9-.3.8 0 1.4.6 1.2 1.3-.3 2 3.1.8 3.8-.5.3-.7-.4-.5-1.5.3-1.7.1-1.8-1.4-1-1 .5-2.1.7-2.4.4-.3-.3-.8-.1-1.1.5-.4.6.3.8 1.7.5 2-.3 2.4 0 2.3 1.9 0 1.2-.5 2.5-1.1 2.9-.6.5-.5.8.3.8.7 0 1.1.4.8.9-.3.5 0 1.3.7 1.9 1.2 1 1.5 8.8.5 10.8-.2.5-.4 2.5-.3 4.6 0 2-.3 3.4-.6 3.2-.4-.2-.6 1.4-.4 3.7.2 2.7-.2 4.2-1.1 4.6-.8.3-1.1.9-.8 1.4.3.5 1.1.6 1.7.3.9-.5.9-.4 0 .6-.7.7-1.7.9-2.5.4-1.9-1.2-3.7-1.4-4.3-.4-.3.5.3.7 1.3.5.9-.1 2.6.3 3.7 1.1 1 .8 1.4 1.4.8 1.4-.5 0-.9 1.2-.8 2.7.2 3.5-1.1 5.3-3.3 4.6-1.4-.4-1.5-.3-.2.5.8.6 1.8.8 2.2.6.4-.3.8 0 .8.5 0 .6-.9 1.1-2 1.1s-2 .5-2 1.1c0 .5.4.8.9.4 1.2-.7 1.1 3.6-.2 5.2-.5.7-.6 1.7-.2 2.3.3.5.1 1-.5 1s-.8.4-.5 1c.3.5-.5 2-1.9 3.3-1.7 1.6-2.3 3-2 4.4.6 2.3-2 8.1-4 8.9-.7.3-1.1 1.6-.9 3.2.4 2.7-3 7.8-4.5 6.8-.4-.3-.8.4-.8 1.5 0 1.9.1 1.9 1.3.3.7-1 1.3-1.3 1.3-.6 0 .6-1 1.8-2.2 2.6-1.2.9-1.9 1.6-1.4 1.6s.3.6-.3 1.3c-.6.8-.7 1.7-.3 2.2.4.4-.3.3-1.5-.4-3.1-1.6-4-1.4-1.7.4 1.5 1.2 1.6 1.6.6 2.3-.8.5-1.3 1.2-1.2 1.6.3 2-1.9 3.9-4.1 3.3-2.3-.6-2.3-.5-.5.8 1.3 1 1.5 1.5.6 1.5-.7 0-1 .3-.7.7.9.8-1.2 3.3-2.7 3.3-.6 0-.4-.5.4-1.1 1.3-.9 1.3-1 0-.6-.8.2-1.3 1.2-1.2 2.3.2 1-.4 2.4-1.4 3.1-1 .7-1.4 1.3-.8 1.3.5 0 .4.4-.1.8-.6.4-2.1 2-3.3 3.6-1.2 1.6-2.2 2.5-2.2 2.1 0-.4.9-1.8 2-3.2 2.3-3 1.9-4.3-1.3-3.5-1.8.5-1.9.7-.4 1 .9.2 1.7.7 1.7 1.2 0 1.3-2.6 3-3.4 2.3-.4-.4-.4.1 0 1.1.9 2.4-1.8 4.6-4.9 4-2-.4-2-.4.2.6 2.3 1 2.3 1.1.6 3-1 1.1-2.1 1.8-2.3 1.5-.3-.3.2-1.1 1.2-1.8 1.6-1.2 1.6-1.3-.3-1.3-1.1 0-1.7.4-1.5.8.3.4.1.8-.5.8s-.8.6-.5 1.4c.3.9-.4 1.9-1.6 2.6-1.5.8-2 .8-1.6.1.4-.6.1-.9-.7-.5-.8.3-1.3 1.3-1 2.4.3 1-.1 2.1-.8 2.5-.7.5-1 .4-.7-.1.3-.5.1-1.8-.3-2.9-.9-1.8-.9-1.8-.5.3.3 1.4-.3 3.1-1.4 4.2-1 1-1.5 2.1-1.2 2.5.4.3-.2.3-1.1-.1-1.3-.5-1.5-1-.8-1.7.6-.6 1.1-1.5 1.1-2.1 0-.5-.6-.2-1.3.9-.9 1.1-1.9 1.5-2.8 1.1-.8-.4-.4.1.9 1.1l2.2 1.8-2.2 1.5c-2.3 1.4-2.8 1.6-4.9 1.9-.5 0-.7.5-.4 1.1.3.5.2 1-.4 1-.5 0-2.3 1.2-4 2.6-1.7 1.4-3.1 2.3-3.1 1.9 0-.4 1-1.5 2.2-2.4 1.6-1.4 1.8-2 .8-2.6-.8-.5-1.1-.4-.7.2.4.5-.5 1.6-1.8 2.3-1.3.7-2.3 1.6-2.1 1.9.2.3-.3 1.3-1.2 2.1-1.4 1.3-1.5 1.2-.9-.3.3-.9.1-1.9-.5-2.3-.7-.4-.8-.3-.4.4s.3 1.2-.3 1.2-.8.7-.5 1.5c.5 1.1.2 1.3-1.2.8-1.2-.4-1.5-.3-1 .5s.2 1-.9.6c-1.1-.5-1.4-.2-.9 1.2.5 1.7.4 1.7-1.1-.1-1.7-2-1.7-2-1.2.3.3 1.2.1 2-.3 1.7-1.2-.7-4.1.6-3.5 1.5.3.5-.3.7-1.2.5-1-.1-2.4.2-3.1.8-1 .8-1.9.8-3.1 0-1.4-.9-1.8-.8-1.8.3 0 .7.4 1.1.8.8.4-.2 1 0 1.3.5.7 1.1-1.3.9-3.2-.2-.7-.5-.9-1.4-.6-2 .4-.7.3-.8-.2-.4-.5.5-.9 1.4-.9 2 0 .7-.9 1.1-2 .9-1.6-.2-1.7-.1-.5.7.9.7 1.9.6 2.7-.1.9-.7 1.3-.7 1.3.1 0 .6-.4 1.2-1 1.2-1.9.3-2.5.5-5 1.8-1.4.8-2.2 1-1.8.6.5-.5-.1-1.5-1.2-2.2-1.1-.8-1.7-1.9-1.4-2.5.4-.7.2-.8-.4-.4-.9.5-.7 1.4.4 3.2 1.3 1.9 1.4 3.1.2 2.2-.2-.1-1.4.4-2.7 1.1-1.9 1.1-2.3 1.1-1.9-.1.3-.7 1.4-1.2 2.6-1.2 1.2.1 1.9-.2 1.7-.6-.3-.5-1.3-.7-2.3-.5-.9.2-2 .4-2.4.4-.5.1-.8.8-.8 1.6s-.4 1.6-1 1.6c-1.4.2-2.2.5-4.3 1.4-1 .4-2 .5-2.4.2-.3-.4-2.1 0-3.9.8-4.1 1.7-4.4 1.2-.6-1 1.5-.9 1.8-1.3.7-1-3.3 1.1-5 1.1-5-.2 0-.6-.3-1.4-.7-1.8-.9-.9-.5 1.7.6 3.3.4.7.5 1.6.1 2-.4.4-1 .1-1.2-.6-.3-.6-.9-1.2-1.5-1.2s-.8.6-.5 1.4c.4 1.1-.5 1.3-4.3 1.1-2.7-.1-4.7.1-4.5.5.2.4-.3.7-1.1.7s-1.3-.6-1-1.3c.3-.8 0-1.1-.9-.7-.8.3-1.3.9-1 1.3.3.5-.8.7-2.5.5-1.7-.2-2.9-.1-2.6.4.6.9-9.1.7-10-.2-.4-.4-1.3-.2-2.1.5-1 .8-1.7.8-2.6-.1-.9-1-.8-1.1.8-.5 1.7.6 1.8.5.7-.7s-1.5-1.1-2.6.3c-1 1.3-2 1.6-4.2 1-1.6-.5-4.2-.7-5.9-.6-2 .2-2.5 0-1.6-.5.8-.5 1.9-.7 2.6-.5.6.3 1.8-.3 2.6-1.3 1.2-1.6 1.2-1.7-.1-.7-1.8 1.2-7.3 1.7-6.6.6.3-.5-.1-.9-.9-.9-1.1 0-1.2.4-.4 1.4 1.1 1.3.5 1.8-1.6 1.3-.5-.1-1.9-.3-3-.5-1.1-.1-2.3-.3-2.7-.4-.5 0-.8-.6-.8-1.3 0-.9.3-.9 1.2 0 1.5 1.5 2.8 1.5 2.8 0 0-.6-.3-.8-.7-.5-.3.4-1.2.2-1.9-.4-1-.8-1.5-.7-2 .4-.6 1.8-2.5 1.7-5-.3-1.6-1.3-1.7-1.3-1 0 .4.8.1.6-.8-.4-.8-1-1.3-2.3-1-2.7.3-.5 0-.9-.6-.9s-.8 1.1-.4 2.7c.4 2.2.3 2.5-.5 1.3-.6-.8-1.1-1.1-1.1-.6 0 .6-.5.5-1.1-.1-.6-.6-1.7-.9-2.4-.6-.8.2-1.8-.4-2.4-1.4-.7-1.5-1.9-1.9-5.2-1.7-2.5.1-5.3-.5-6.6-1.3-1.3-.9-2.3-1.2-2.3-.9 0 .4-.6.4-1.2-.1-.7-.4-1.5-.8-1.8-.9-1.9-.3-6-2.9-6-3.8 0-.6-.5-.4-1 .4-.8 1.3-1 1.2-1-.3 0-.9.5-1.7 1.2-1.7.6 0 .9-.3.5-.6-.3-.3-1.2-.2-1.9.2-1.9 1.2-3.1 1.2-4.8-.2-1.5-1.2-2-1.4-4-1.4-.5 0-1-.5-1-1.1 0-.5.5-.7 1-.4.6.3 1 .2 1-.3 0-1.5-2.8-2.3-3.6-1-.5.7-.2.8.6.3.9-.5 1.1-.4.6.4-.4.6-1.1.9-1.6.6-.9-.6-.8-2.4.3-4.2.6-.9.3-1.1-.7-.7-.9.3-1.6 1.4-1.6 2.3-.1 1.4-.2 1.4-1.1-.2-.6-.9-1.4-1.5-1.8-1.2-.5.2-1.5-.3-2.2-1.3-1.3-1.6-1.3-1.6.6-.2 1.9 1.4 1.9 1.4.6-.3-1-1.3-1.7-1.5-2.7-.6-1.1.9-1.4.8-1.4 0 0-.7-.5-.9-1-.6-.6.4-.9.1-.8-.6.2-.7-.2-1.3-.9-1.4-2 0-3.4-2.1-2.7-3.8.3-.9 1-1.4 1.6-1.1.5.3.5 1.1-.2 1.9-.8 1-.8 1.5.2 2.1.7.4 1 .4.6-.1-.4-.4-.3-1.4.2-2 .7-.9.6-1.6-.4-2.4-1.2-1-1.7-.8-2.5.8-.7 1.3-1.7 1.8-2.7 1.4-1.4-.5-1.3-.9.7-2.5 1.9-1.6 2-1.7.3-.9-1.1.5-2.6.6-3.4.1-.8-.5-1.8-.6-2.2-.4-.4.3-.8-.2-.8-1.1 0-.9.4-1.4.9-1 .5.3 1.3 0 1.7-.6.5-.8.3-.9-.6-.4-.9.6-1.2.4-.8-.7.4-.8 0-1.5-.8-1.5-.7 0-1.1.4-.8.9 1 1.6-.7 3-2.2 1.7-1.3-1-1.2-1.5.3-3.2 1.8-1.9 1.8-2-.6-.6-1.8 1.1-2.5 1.1-2.8.1-.3-.6-1.4-1.2-2.4-1.2-1.1 0-1.8-.4-1.4-1 .3-.5 1.2-.7 2-.3.8.3 1.5 0 1.5-.7 0-.6-.3-.9-.7-.7-1 .6-3.4-1.9-2.6-2.7.3-.3 1.5-.1 2.7.5 2 1 2 1 .2-.5-1.1-.9-1.6-1.6-1.2-1.6.5 0 .3-.6-.3-1.4-.9-1.1-.1-2.6 3.6-7.4 2.7-3.3 5.1-5.8 5.4-5.6.4.2 1-.7 1.3-2.1.4-1.6 1.3-2.5 2.6-2.5 1.1 0 2-.5 2-1.1 0-.5-.6-.7-1.2-.4-.7.4-.6.1.3-.7.9-.7 1.4-2 1.1-2.8-.3-.9.1-.8 1 .4 1.1 1.3 1.7 1.6 2.2.7.4-.6 1.2-.9 1.7-.6 1.5 1 1-.2-.8-1.6-1.4-1.2-1.6-1.2-.8 0 .6 1 .4 1.2-.4.7-1.3-.8.3-3.4 3.9-6.4.8-.7 1.5-1.6 1.5-2.1 0-.4.7-1.4 1.5-2.3.8-.9 2.3-2.7 3.4-4.2 1.5-2.1 2.2-2.4 3.8-1.5 1.5.8 1.9.8 1.4 0-.4-.6 0-1.4.8-1.7.9-.3 1.4-1 1.1-1.4-.7-1.1 2.2-3.3 3.4-2.5.7.3.8 0 .5-1-.5-1.1-1-1.3-1.9-.5-.9.8-1.5.8-2 0-.4-.6-.1-.9.7-.8.7.2 1.2-.3 1-1-.1-.8.2-1.1.7-.8.5.4 1.2-.2 1.5-1.1.4-1 2.2-3.5 4.1-5.7 1.9-2.1 3.5-4.2 3.5-4.8 0-.5.5-.6 1-.3.9.6 1.4-.8 1.1-2.8-.1-.5.3-.6.9-.2.5.3 1-.1 1-.9 0-.9.5-1.6 1-1.6.7 0 .7.6 0 1.9-1.2 2.4.5 4 2.3 2.2.9-.9.8-1.1-.6-.5-1.3.5-1.6.2-1.1-1 .3-.9 1.1-1.3 1.6-1 .7.4.6 0 0-1.2-1.2-2.3.6-5.4 3.1-5.4.9 0 1.9-.5 2.2-1 .4-.6 1.1-.7 1.7-.4.7.4.8.2.4-.5-.4-.6 0-1.4.9-1.8 1.6-.5 1.6-.7.1-1.5s-1.4-1.2.6-3.7c2.2-2.6 2.5-2.7 4.8-1.3 1.8 1 2.1 1.1 1 .1-2-1.9-2.4-5.5-.4-3.8 1.2.9 1.3.9.9-.4-.9-2.1 1.2-3.1 3.3-1.6 1.6 1.2 1.6 1.2 0-.6-1.6-1.8-1.6-1.9.5-3 1.2-.6 2.3-2.1 2.5-3.3.2-1.3 2-4.1 4.1-6.2 2.1-2.2 3.5-4.2 3.2-4.5-.3-.4.2-.3 1.2.1.9.3 1.4 1.1 1 1.8-.3.6-.3.8.1.4.4-.3.6-.8.4-1.1-.1-.2.4-1.2 1.2-2.3 1.4-1.8 1.4-1.8-.2-.5-1 .7-1.8.9-1.8.3 0-.5.7-1.2 1.5-1.6.8-.3 1.5-.9 1.4-1.3-.3-2 .2-2.4 1.6-1.3 1.7 1.4 2.1 0 .5-1.6-1-1 .6-1.1 5.3-.5.4.1.7.8.7 1.7 0 .8.4 1.2 1 .9.5-.3 2.1.5 3.4 1.8 1.4 1.4 2.7 2.3 2.9 2.1.2-.3 1 .3 1.7 1.2 1.1 1.2 1.1 2 .2 3.4-.9 1.4-.8 1.8.3 1.6.8-.1 1.8-.6 2.2-1.1.4-.4.2-.5-.6 0-.9.5-1.2.4-.7-.3.4-.6 1.3-.9 2.1-.5 1.7.6 2 2.3.5 2.3-.6 0-.9.6-.8 1.2.2.7-.3 1.2-1 1-.8-.1-1.1.2-.7.8.5.8 1.1.8 2 0 1-.8 1.5-.7 1.9.2.3.7.3.3 0-1-.3-1.2-.1-2.2.5-2.2s1.1.7 1.1 1.6c0 1 .6 1.4 1.4 1.1.9-.4 1.7.2 2.1 1.4.4 1.1 1.2 1.8 1.9 1.6.7-.3 2.3.7 3.7 2.1 2.3 2.4 2.3 2.5.2 1.3-1.5-.7-2.3-.8-2.3-.1 0 .9 1.6 1.4 4.7 1.3 1.1 0 1 2.7-.2 4.7-.3.5.4.7 1.5.5 1.7-.3 1.9 0 1.6 2.1-.3 1.3-.1 2.2.3 1.9 1.3-.7.7-5-.7-4.7-1.4.3-1.6-1.4-.2-2.3.6-.3 1-.1 1 .4 0 .6.7 1.1 1.5 1.1.9 0 1.5.6 1.4 1.2-.4 3.1.2 3.9 2.1 3.3 1.1-.4 2-.2 2 .4 0 .6.6 1 1.3.9.6-.2 1.1.3.9.9-.1.7.3 1.3.9 1.3.8 0 .7.6-.2 1.7-1.3 1.7-1.2 1.6.7 0 2.1-1.7 2.2-1.7 2.8.5.6 2.3.6 2.2 3.5-1.1 2.7-3.1 3.1-3.3 4.8-2 1.6 1.3 1.7 1.2.5-.2-1.7-2.2-.5-5.4 1.4-3.8 1.2 1 1.3.9.8-.5-.4-1.1.1-2.4 1.5-3.7 1.1-1.1 2.1-2.4 2.1-2.9 0-.6.5-1 1-1 .7 0 .7.6 0 1.9-.5 1.1-1 2.3-1 2.8.1.4.8-.4 1.6-2 .8-1.5 1.3-3.1 1-3.5-.3-.5.6-2 1.9-3.4 1.3-1.4 2.1-2.9 1.7-3.3-.4-.4 0-.5.8-.3.9.2 1.4-.4 1.4-1.4-.1-.9.4-1.5 1-1.2.6.2 1.8-1.1 2.7-2.9.9-1.7 2.3-3.1 3.2-3.1.8.1 1.3-.4 1.1-1.1-.3-.6 1.1-3.1 3.1-5.4 1.9-2.4 3.5-3.8 3.5-3.3s.8 1.3 1.8 1.7c1.4.5 1.5.4.5-.6-1.9-1.9-1.6-3.9.6-3.9 2.3 0 3.4-2.3 1.8-4-.9-1-.9-1.1.1-.6.7.4 2 .5 2.9.2 1.2-.5 1.3-.9.3-2.1-1.3-1.5-.9-1.8 2.5-1.6 1.1 0 1.4-.2.8-.5-1.8-.8-1.6-2.7.1-2.1 1 .4 1.3.1 1-.8-.6-1.4 2.8-5.5 4.6-5.5.5 0 .6.8.3 1.7-.6 1.5-.5 1.6.9.3 1.1-1.1 1.2-1.7.4-2.2-1-.7-.1-1.2 1.7-.9.5.1.6-.3.2-.9-.5-.8-1.1-.7-2.1.1-.8.6-1.7.9-2 .6-.3-.3.4-1 1.5-1.7 1.2-.6 1.9-1.5 1.6-2-.3-.6.1-.7.9-.4.9.3 1.3 1.1.9 1.7-.4.6-.1.7.6.2.9-.5.9-1.1.3-1.7-1.2-1.2-.5-3.8 1-3.8.6 0 .4.7-.3 1.7-1.3 1.5-1.2 1.5.8.3 2-1.3 2-1.5.5-2.7-1.3-1-1.3-1.3-.2-1.1.8.2 1.4-.2 1.5-.7.1-2 3.8-6.5 4.8-5.8.6.4.4 1.1-.7 1.9-.9.6-1.3 1.5-.8 1.8.6.3 1.3-.1 1.6-1 .3-.8.9-1.3 1.4-1 .4.2.8-.4.8-1.4 0-1-.3-1.7-.6-1.5-.4.2-.7-.2-.7-1s.3-1.3.5-1c.3.3 1.1-.3 1.9-1.3 1.3-1.6 1.4-1.5.8.5-.4 1.3-.2 2.3.3 2.3.6 0 .9-1.4.8-3.1-.2-2.5.1-3 1.6-2.6 1 .3 2 .1 2.3-.3.3-.5 1.4-.7 2.5-.5 1.2.2 1.8 0 1.5-.5-.6-.9-3.1-.8-4.1.3-.4.3-1.1.4-1.6.1-.5-.3-.1-1.2.9-2 1-.7 1.3-1.4.7-1.4-.7 0 .9-2.2 3.5-5 5.4-5.8 9.1-10.3 9.1-11.1 0-.3 1.1-.4 2.4-.2 2.6.5 4.3-1.1 2.5-2.3-.8-.4-.9-.3-.5.4s.1 1.2-.9 1.2c-.9 0-1.5-.6-1.2-1.3.2-.6 1.3-1.2 2.5-1.1 1.6 0 1.9-.3 1.2-1.5-.6-1.1-.1-2.2 1.5-3.7 1.3-1.2 2.1-2.5 1.7-3-.4-.4-.1-.4.6 0 1.1.6 1.7-.5 1.3-2.7 0-.4.5-.6 1.2-.5.6.2 1.1-.2 1-.9-.4-1.7 2.4-.5 3.1 1.4.3.8.3 2 0 2.6-.5.9-.4.9.5.1 1-.9 1-1.7.2-3.2-.6-1-.7-2.3-.3-2.7.4-.5.1-.5-.5-.1-.7.4-1.3.2-1.3-.4 0-.7.9-.9 2.3-.5 2.1.6 2.1.5.4-.9-1.8-1.4-1.8-1.4.2-2.1 1.2-.3 2.6-.3 3.3.1 1 .6 1.1.4.1-.7-1.7-1.8-1.7-3.4 0-2 .8.6 1.7.8 2 .4.4-.3.7-.1.7.7 0 .9.3 1 1.3.1.8-.6 1.8-.7 2.2-.3.5.4.5.2.1-.5s-1.4-.9-2.3-.6c-1.2.5-1.4.3-.8-.8.7-1.2.6-1.2-.7-.1-1.3 1-1.7 1-2.2-.3-.3-.9-.2-1.4.3-1 1.8 1.1 3.9-.7 3.6-3-.1-1.4.2-2.2.6-1.9.5.3 1.2-.1 1.5-.9.6-1.5 5.4-2 5.4-.6zm1.5 18c-.4.5-.1.9.6.9s.9.3.6.6c-.9.9-3.8-1.6-3.1-2.7.3-.5 1-.7 1.5-.3.5.3.7 1 .4 1.5zm43 34.9c-.3.5-1.2 1-1.8 1-.7 0-.6-.4.3-1 1.9-1.2 2.3-1.2 1.5 0zm.5 3c0 .5-.2 1-.4 1-.3 0-.8-.5-1.1-1-.3-.6-.1-1 .4-1 .6 0 1.1.4 1.1 1zm-357.7 8.4c.4 1 .1 1.3-.8.9-.8-.3-1.2-.9-.9-1.4.7-1.2 1.1-1.1 1.7.5zm184.4 25.4c.9.5.9 1.1 0 2.2-1.1 1.4-1.4 1.4-2.9-.1-1.2-1.3-1.3-1.9-.5-2.3 1.7-.7 2.1-.6 3.4.2zm48.3 2.6c0 .3-.4.8-1 1.1-.5.3-1 .1-1-.4 0-.6.5-1.1 1-1.1.6 0 1 .2 1 .4zm-108.6 29.1c-.4.8-1.1 1.5-1.6 1.5-.6 0-.5-.6.2-1.5.7-.8 1.4-1.5 1.6-1.5.2 0 .1.7-.2 1.5zM267 284c0 .5-.2 1-.4 1-.3 0-.8-.5-1.1-1-.3-.6-.1-1 .4-1 .6 0 1.1.4 1.1 1zm-70.6 7.2c-.3.4-1.4 1.3-2.5 1.9-1.8.9-1.9.8-.8-.9.6-1 1.8-1.9 2.5-1.9s1.1.4.8.9zM91.6 306.5c-.1.8-.6 1.8-1.1 2.2-.4.4-.5.2-.1-.5s.2-1.2-.6-1.2c-.9 0-.9-.3.2-1 1.9-1.2 1.9-1.3 1.6.5zm317.1 4c0 .8-.4 1.2-.9.9-.4-.3-.8-.9-.8-1.5 0-.5.4-.9.8-.9.5 0 .9.7.9 1.5zm-239.3 13c-.9 1.4-1.9 2.4-2.1 2.1-.6-.6 2-4.6 3-4.6.4 0 0 1.1-.9 2.5zm235.6-2.1c0 .3-.4.8-1 1.1-.5.3-1 .1-1-.4 0-.6.5-1.1 1-1.1.6 0 1 .2 1 .4zm-300 30c0 .3-.4.8-1 1.1-.5.3-1 .1-1-.4 0-.6.5-1.1 1-1.1.6 0 1 .2 1 .4zm28.4 17.7c-1.9 2.1-3.3 1.7-1.6-.4.7-.8.9-1.7.5-2.1-.4-.4.1-.4 1 0 1.7.6 1.7.8.1 2.5zm-1.2 2.4c1.5 0 2 1.5.5 1.5-1.1 0-1.5.7-1.2 2 .2 1.1 0 1.8-.6 1.5-.5-.4-1.2.1-1.5.9-.3.9-1.1 1.3-1.7.9-.7-.4-.8 0-.3 1.2.7 1.8.6 1.8-1.6 0-1.3-1.1-2.5-2.2-2.8-2.4-.3-.2.6 0 2 .4 2.3.7 2.4.7 1-1.1-1.1-1.5-1.1-1.6 0-.7 2.3 2.1 3.5 1.5 1.5-.7-1.7-1.9-1.7-1.9.5-1.5 1.8.3 2.1.1 1.7-1.5-.3-1.4-.1-1.8.6-1.3.7.4 1.5.8 1.9.8zM203 412c0 .5-.4 1-1 1-.5 0-1-.5-1-1 0-.6.5-1 1-1 .6 0 1 .4 1 1zM43 428c0 .5-.5 1-1.1 1-.5 0-.7-.5-.4-1 .3-.6.8-1 1.1-1 .2 0 .4.4.4 1zm288 1.5c-.7.9-1.5 1.3-1.9 1-.3-.3.1-1 .9-1.5 2.1-1.4 2.4-1.2 1 .5zM79.5 433c-.3.5-1.2 1-1.8 1-.7 0-.6-.4.3-1 1.9-1.2 2.3-1.2 1.5 0z"/><path d="M240.2 81.8c-.7.2-1.2.8-1.2 1.4 0 .7.5.6 1.4-.1 1.1-.9 1.5-.9 1.9.1.4 1.1.6 1 .6 0 .1-.7.5-1.1 1-.7.5.3 1.2.2 1.5-.3.5-.8-3.2-1.1-5.2-.4zM255 81.7c0 .6.8 1.7 1.8 2.4 1.6 1.3 1.6 1.3.2-.6-.8-1.1-1.6-2.2-1.7-2.4-.2-.2-.3 0-.3.6zM227.3 84.5c0 .8.4 1.2.9.9.5-.3.6-1 .3-1.5-.9-1.3-1.2-1.1-1.2.6zM251.1 83.3c.2.1 1.2.9 2.2 1.6 1.5 1.2 1.7 1.2 1.1-.3-.3-.9-1.3-1.6-2.2-1.6-.8 0-1.3.1-1.1.3zM259.9 83.2c-.5 1.8-.6 3.8-.1 3.4.7-.8 1.2-3.6.6-3.6-.2 0-.4.1-.5.2zM274.9 84.4c.6.7.9 1.5.6 1.8-.3.3.3 1.1 1.2 1.9 1.6 1.2 1.7 1.2.6-.2-1-1.2-1-1.8-.1-2.7.7-.7 1-1.2.8-1.3-.3 0-1.3-.2-2.3-.4-1.4-.3-1.6 0-.8.9zM217.4 85.5c-1.3 1.1-1.4 1.4-.4 1.3.8-.2 1.8-.7 2.1-1.2.8-1.1 3.1.2 2.4 1.4-.3.5-.1 1.1.4 1.4 1.1.7.9-1.3-.2-3.2-1.1-1.6-1.9-1.5-4.3.3zM267 85c0 .5.5 1 1.1 1 .5 0 .7-.5.4-1-.3-.6-.8-1-1.1-1-.2 0-.4.4-.4 1zM230 86c-.9.6-1 1-.3 1 .6 0 1.5-.5 1.8-1 .8-1.2.4-1.2-1.5 0zM241.5 86c.3.5.8 1 1.1 1 .2 0 .4-.5.4-1 0-.6-.5-1-1.1-1-.5 0-.7.4-.4 1zM247.6 86.2c.3.5 1 .6 1.5.3 1.3-.9 1.1-1.2-.6-1.2-.8 0-1.2.4-.9.9zM283 86c0 .5.5 1 1 1 .6 0 1-.5 1-1 0-.6-.4-1-1-1-.5 0-1 .4-1 1zM289.6 87.3c.3 1 .9 1.5 1.2 1.2.3-.3 0-1.1-.7-1.8-1-.9-1.1-.8-.5.6zM285.5 88c-.4.6.1.7 1.1.3 1.3-.5 1.5-.3.9.7-.5.9-.4 1.1.4.6.6-.4.9-1.2.6-1.7-.8-1.2-2.2-1.2-3 .1zM294.8 89.2c-2.1 2.1-1.1 2.4 1.5.4 1-.8 1.5-1.6 1-1.8-.4-.3-1.6.3-2.5 1.4zM205.6 89.8c-.2.4-.1 1.4.4 2.2.7 1.1.9.9.7-.8-.1-2.4-.3-2.6-1.1-1.4zM216.5 90c-.3.6.1.7.9.4 1.8-.7 2.1-1.4.7-1.4-.6 0-1.3.4-1.6 1zM195.7 91.8c.3.7.9 1 1.2.5.3-.4 1-1.1 1.5-1.5.4-.4-.1-.6-1.2-.5-1.2.1-1.8.6-1.5 1.5zM296.9 91.7c-1.3 1.6-1.2 1.7.4.4 1.6-1.3 2.1-2.1 1.3-2.1-.2 0-1 .8-1.7 1.7zM192 92.5c-.7.9-.8 1.5-.2 1.5.5 0 1.2-.7 1.6-1.5.3-.8.4-1.5.2-1.5s-.9.7-1.6 1.5zM305.5 91.9c-.3.5-.2 1.2.3 1.5.5.3.9-.1.9-.9 0-1.7-.3-1.9-1.2-.6zM359.2 95.3c-.9 1.1-.8 1.8.8 3.2 1.1 1 2 1.4 2 1 0-.5 1.1.6 2.4 2.3 2 2.8 2.5 3 3 1.5.4-1 .4-1.4 0-1-1.3 1.2-3.5-1.4-2.4-2.8.8-1 .6-1.3-.7-1.1-1 0-1.8-.4-1.8-1.1 0-2.3-2.1-3.5-3.3-2zm2.4 2.3c.2 1.2-.1 1.3-1.2.3-.7-.6-1.1-1.6-.8-2.1.7-1.1 1.7-.3 2 1.8zM180.1 96.4c-.9 1.1-.9 1.6.1 2.2.7.4 1 .4.6-.1-.4-.4 0-1.4 1-2.1.9-.7 1.2-1.4.6-1.4s-1.7.6-2.3 1.4zM303.6 95.8c-.3.5.1.9.9.9s1.2-.4.9-.9c-.3-.4-.7-.8-.9-.8-.2 0-.6.4-.9.8zM309.6 95.9c.9.9 3.4.9 3.4.1 0-.5-.9-.8-2-.7-1 .1-1.7.3-1.4.6zM177 100c0 .5.5 1 1 1 .6 0 1-.5 1-1 0-.6-.4-1-1-1-.5 0-1 .4-1 1zM319.6 100.5c-.9 2.6-.7 3.2.5 1.2.6-1 .9-2.1.6-2.3-.2-.3-.7.2-1.1 1.1zM166.4 103.2c-1 1.2-1.3 1.8-.5 1.3 1.1-.6 1.3-.4.8.9-.4 1.1-.3 1.5.4 1.1.6-.4.8-1.3.5-2-.2-.7.1-1.8.7-2.4.6-.6.9-1.1.6-1.1-.3 0-1.4 1-2.5 2.2zM330.3 103.5c0 .8.4 1.2.9.9.5-.3.6-1 .3-1.5-.9-1.3-1.2-1.1-1.2.6zM160.8 106.3c-1.6 1.3-1.9 3.9-.5 5.3.3.4.5-.3.2-1.4-.2-1.2 0-2.4.6-2.7.5-.4.9-.2.9.3s.7.9 1.5.9 1.5-.4 1.5-.9c0-.4-.7-.8-1.6-.8-.8 0-1.2-.5-.9-1 .8-1.3.4-1.2-1.7.3zM335 106.1c0 .5.5.7 1 .4.6-.3 1-.8 1-1.1 0-.2-.4-.4-1-.4-.5 0-1 .5-1 1.1zM371.9 105.2c-.5 1.6-.4 4.6.2 4.2.4-.2.7-1.3.6-2.4-.1-1.7-.5-2.6-.8-1.8zM338.3 106.7c-.7.2-1.3.9-1.3 1.5s.7.4 1.7-.3c1.4-1.2 1.6-1.2 1.1.2-.4.9-.1 1.6.7 1.6 1 0 1.1-.5.4-1.9-.5-1-1.1-1.8-1.2-1.7-.1 0-.8.3-1.4.6zM376.5 111c1 1.1 2 2 2.2 2 .2 0-.2-.9-.9-2s-1.7-2-2.2-2c-.5 0-.1.9.9 2zM156 111.8c0 .5.7.9 1.5.9s1.2-.4.9-.9c-.3-.4-.9-.8-1.5-.8-.5 0-.9.4-.9.8zM345.2 112.2c.2.6 1.2 1.2 2.2 1.4 1.4.2 1.5 0 .5-1.2-1.4-1.7-3.2-1.9-2.7-.2zM148.4 115.1c-.3.6-.3 1.3 0 1.6.3.4.6.1.6-.5 0-.8.7-.9 2.5-.2 1.7.6 2.6.6 3.1-.3.4-.7.4-.9 0-.5-.5.4-1.9.3-3.2-.2-1.5-.6-2.6-.6-3 .1zM347.6 116.1c.3.5.9.7 1.4.4.4-.3 1.1 0 1.3.5.3.6.4.5.3-.1-.1-.7-1-1.3-1.9-1.5-.9-.1-1.5.2-1.1.7zM146.8 118.7c.7.3 1.6.2 1.9-.1.4-.3-.2-.6-1.3-.5-1.1 0-1.4.3-.6.6zM353.7 120.1c.7.7 1.5 1 1.8.7.3-.3-.2-.9-1.2-1.2-1.4-.6-1.5-.5-.6.5zM359.3 124.5c0 .7.6 1.1 1.4.8.7-.3 1.3-.6 1.3-.8 0-.2-.6-.5-1.3-.8-.8-.3-1.4.1-1.4.8zM136.2 125.2c-.7.9-.6 1.7.3 2.5 1 .9 1.3.7 1.1-1.3-.1-2.8-.1-2.8-1.4-1.2zM362 127.1c0 .5-.4.8-.9.4-.5-.3-1.2-.1-1.5.4-.4.5.2.8 1.1.7 1.5-.3 3.3-2.6 1.9-2.6-.3 0-.6.5-.6 1.1zM362 133.8c.6 1.2.8 2.7.5 3.2-.3.6-.4 1-.1 1 .3 0 1.1-1 1.7-2.3.6-1.2.8-1.9.4-1.5-.4.4-1.4 0-2.2-1-1.3-1.5-1.3-1.5-.3.6zM127 137.1c0 .5-.5.7-1.2.3-.7-.4-.8-.3-.4.4.4.6 1.3.9 2.1.6.8-.4 1.2-1 .9-1.5-.7-1.2-1.4-1.1-1.4.2zM351.5 139.1c-.4.6-.5 1.2-.2 1.5.2.3.7-.2 1-1.1.7-1.7.1-2-.8-.4zM121.1 141.4c-1.7 1.8-1.9 2.6-1 3.1.7.5 1 .4.5-.3-.3-.6.6-2 2-3.1 1.5-1.2 2.2-2.1 1.7-2.1-.5 0-2 1.1-3.2 2.4zM122 143.8c0 .5.7.9 1.5.9s1.2-.4.9-.9c-.3-.4-.9-.8-1.5-.8-.5 0-.9.4-.9.8zM354 144.4c0 .2.7.7 1.6 1 .8.3 1.2.2.9-.4-.6-1-2.5-1.4-2.5-.6zM117 146.5c-.8.9-.8 1.5 0 2 .6.4.9.1.8-.7-.2-.8.4-1.2 1.5-1 2.1.3 2.3-.4.3-1.1-.8-.3-2 0-2.6.8zM351.5 148c-.3.5-.1 1 .4 1 .6 0 1.1-.5 1.1-1 0-.6-.2-1-.4-1-.3 0-.8.4-1.1 1zM114.7 151.7c.3.7.6 1.3.8 1.3.2 0 .5-.6.8-1.3.3-.8-.1-1.4-.8-1.4-.7 0-1.1.6-.8 1.4zM112.1 152.9c-.8.5-.9 1.1-.3 1.5.5.3 1.2-.1 1.6-.9.6-1.7.6-1.8-1.3-.6zM345 156c0 .5.5 1 1 1 .6 0 1-.5 1-1 0-.6-.4-1-1-1-.5 0-1 .4-1 1zM343 158c0 .5.5 1 1.1 1 .5 0 .7-.5.4-1-.3-.6-.8-1-1.1-1-.2 0-.4.4-.4 1zM111.5 160c.3.5.8 1 1.1 1 .2 0 .4-.5.4-1 0-.6-.5-1-1.1-1-.5 0-.7.4-.4 1zM335.9 164.7c-1.3 1.6-1.2 1.7.4.4 1.6-1.3 2.1-2.1 1.3-2.1-.2 0-1 .8-1.7 1.7zM325.3 171.5c0 .8.4 1.2.9.9.5-.3.6-1 .3-1.5-.9-1.3-1.2-1.1-1.2.6zM100.5 172.3c-1.9 2.2-2.9 4.1-1.7 3.3.5-.3 1.2-.3 1.5.1.2.5.2.2.1-.5-.2-.7.3-1.5 1.1-1.8.8-.4 1.5-1 1.5-1.5 0-1.3-1.3-1.1-2.5.4zM97.6 177.8c-.6 1 .5 2.6 2 2.9.6.1 1.1-.4 1.1-1.2 0-.7-.7-1.1-1.5-.7-1 .3-1.3.1-.8-.6.4-.7.5-1.2.2-1.2s-.7.4-1 .8zM327 178c0 .5.5 1 1.1 1 .5 0 .7-.5.4-1-.3-.6-.8-1-1.1-1-.2 0-.4.4-.4 1zM102 179.4c0 .2.8 1 1.8 1.7 1.5 1.3 1.6 1.2.3-.4s-2.1-2.1-2.1-1.3zM324.7 179.7c-.4.6 0 1.3.8 1.7.8.3 1.7 0 2.1-.6.4-.6.3-.8-.4-.4-.5.3-1.2.1-1.4-.6-.3-.8-.6-.9-1.1-.1zM96.7 182.9c1.4 1.7 3.3 2 3.3.5 0-.3-.4-.3-.9 0s-1.1-.1-1.5-.9c-.3-.8-1-1.5-1.6-1.5-.5 0-.2.9.7 1.9zM95 183.9c0 .6.4 1.3 1 1.6.6.3.7-.1.4-.9-.7-1.8-1.4-2.1-1.4-.7zM323.5 184c-.3.5-.2 1 .4 1 .5 0 1.3-.5 1.6-1 .3-.6.2-1-.4-1-.5 0-1.3.4-1.6 1zM319 187.1c0 .5.5.7 1 .4.6-.3 1-.8 1-1.1 0-.2-.4-.4-1-.4-.5 0-1 .5-1 1.1zM315.3 189.5c0 .8.4 1.5.9 1.5.4 0 .8-.4.8-.9 0-.6-.4-1.2-.8-1.5-.5-.3-.9.1-.9.9zM314 193.1c0 .5-.4.8-.9.4-.5-.3-1.2-.1-1.5.4-.4.5.2.8 1.1.7 1.5-.3 3.3-2.6 1.9-2.6-.3 0-.6.5-.6 1.1zM91.2 195.9c-1.1.7-1.1.9 0 1.4.9.3 1.5-.1 1.5-.9s-.1-1.4-.1-1.4c-.1 0-.7.4-1.4.9zM92.6 200.2c.3.5 1 .6 1.5.3 1.3-.9 1.1-1.2-.6-1.2-.8 0-1.2.4-.9.9zM308.5 201.2c.2.9-.6 1.8-1.6 2.1-1.1.3-1.9 1.1-1.8 1.9 0 1 .2 1 .6 0 .2-.6 1-1.2 1.8-1.2.7 0 1.9-.8 2.6-1.7.8-.9.9-1.4.2-1-.6.4-1.3.2-1.6-.5-.2-.7-.3-.6-.2.4zM88.5 201.1c-.4.6-.4 1.3-.1 1.6.3.4.6.1.6-.6s.5-.9 1.2-.5.8.3.4-.4c-.9-1.5-1.3-1.5-2.1-.1zM301 203.9c0 .6.4 1.3 1 1.6.6.3.7-.1.4-.9-.7-1.8-1.4-2.1-1.4-.7zM88 204.9c0 .6.4 1.3 1 1.6.6.3.7-.1.4-.9-.7-1.8-1.4-2.1-1.4-.7zM86.6 208.6c-.8 2.2-.4 2.5 1.1.9.7-.8.9-1.6.4-1.9-.5-.3-1.2.1-1.5 1zM300.9 208.4c1 1.1.8 1.5-.6 1.9-1 .3-.6.4.9.4 2.5-.1 2.6-.2 1.1-1.9-1.9-2.1-3.1-2.4-1.4-.4zM214.6 211.8c-.3.5.1.9.9.9s1.2-.4.9-.9c-.3-.4-.7-.8-.9-.8-.2 0-.6.4-.9.8zM85.5 213c-.3.6.1.7.9.4 1.8-.7 2.1-1.4.7-1.4-.6 0-1.3.4-1.6 1zM88 214c-1.2.7-1 .9.7.7 1.2 0 1.9-.5 1.7-.9-.6-1-.6-1-2.4.2zM292.2 220c-.8 1.3-.8 2-.1 2 .5 0 .8.4.4 1-.3.5-1.3.7-2.3.4-1.4-.5-1.4-.4-.2.4 1.9 1.4 4.1-.4 3.3-2.5-.4-1.1-.2-1.4.5-.9.8.5 1 .2.6-.8-.8-2-.7-2-2.2.4zM207 224c-.6 1.2-1.7 1.7-2.8 1.4-1.4-.5-1.4-.4-.2.4.8.6 1.8.8 2.2.6 1-.6 3-4.4 2.4-4.4-.3 0-1 .9-1.6 2zM83 225.4c0 .2.7.7 1.6 1 .8.3 1.2.2.9-.4-.6-1-2.5-1.4-2.5-.6zM250.5 226c-.3.6.1.7.9.4 1.8-.7 2.1-1.4.7-1.4-.6 0-1.3.4-1.6 1zM287.8 225.7c.7.3 1.6.2 1.9-.1.4-.3-.2-.6-1.3-.5-1.1 0-1.4.3-.6.6zM83 228c0 .5.5 1 1.1 1 .5 0 .7-.5.4-1-.3-.6-.8-1-1.1-1-.2 0-.4.4-.4 1zM201.7 228.8c.5 1.1.3 1.3-.7.7-.9-.6-1.1-.4-.5.5.6 1 1.1 1 2-.3.7-.9 1.4-1.6 1.6-1.4.2.1.3 0 .1-.2-.1-.3-.9-.6-1.7-.7-.9-.1-1.1.4-.8 1.4zM252.6 227.9c-.3.5.1 1.1.9 1.4.9.4 1.2.1.8-.9-.6-1.6-1-1.7-1.7-.5zM282.5 228c-.3.6.1.7.9.4 1.8-.7 2.1-1.4.7-1.4-.6 0-1.3.4-1.6 1zM193 233.7c0 .1.8.7 1.8 1.2 1.3.7 1.9.6 1.9-.2 0-.7-.9-1.3-1.9-1.3-1 0-1.8.1-1.8.3zM278 235.6c.8 1 1.5 2 1.6 2.2.1.2.4-.1.7-.5.3-.5-.4-1.5-1.6-2.3-2.1-1.2-2.1-1.2-.7.6zM269.4 235.8c.4.3 1.4.7 2.2.8.9.1 1.3 0 1-.4-.4-.3-1.4-.7-2.2-.8-.9-.1-1.3 0-1 .4zM82 237.8c0 .7.5 1.2 1 1.2.6 0 1 .5 1 1.1 0 .6-.7.8-1.7.4-1.5-.5-1.6-.4-.5.6.9 1 1.5 1 2.4.1.9-1 .8-1.6-.5-2.9-1.1-1.1-1.7-1.3-1.7-.5zM271.5 239c-.3.6.1.7.9.4 1.8-.7 2.1-1.4.7-1.4-.6 0-1.3.4-1.6 1zM188 242.5c0 .5.5 1.7 1 2.5s1 1 1 .5c0-.6-.5-1.7-1-2.5s-1-1.1-1-.5zM83 244.4c.7.7 1.3.7 2 0 .6-.6.3-1-1-1s-1.6.4-1 1zM185 250.5c-1.4.8-2 1.5-1.5 1.5.6 0 .1.7-.9 1.5-1.1.8-1.6 1.5-1 1.5.5 0 2.2-1.4 3.7-3 3.2-3.4 3.2-3.5-.3-1.5zM179 251.8c0 .5.7.9 1.5.9s1.2-.4.9-.9c-.3-.4-.9-.8-1.5-.8-.5 0-.9.4-.9.8zM178 256.5c-1.1 1.3-1 1.4.4.9.9-.3 1.6-1 1.6-1.5 0-1.3-.6-1.1-2 .6zM173.3 258.5c0 .8.4 1.2.9.9.5-.3.6-1 .3-1.5-.9-1.3-1.2-1.1-1.2.6zM82.8 259.7c.7.3 1.6.2 1.9-.1.4-.3-.2-.6-1.3-.5-1.1 0-1.4.3-.6.6zM83.2 263.9c-1.1.7-1.1.9 0 1.4.9.3 1.5-.1 1.5-.9s-.1-1.4-.1-1.4c-.1 0-.7.4-1.4.9zM84.5 270.1c-.4.6-.5 1.2-.2 1.5.2.3.7-.2 1-1.1.7-1.7.1-2-.8-.4zM164.3 274.6l-2.8 2.5 3.3-2.2c1.7-1.3 3.2-2.4 3.2-2.6 0-.8-1.1-.1-3.7 2.3zM83 273.4c0 .2.7.7 1.6 1 .8.3 1.2.2.9-.4-.6-1-2.5-1.4-2.5-.6zM159.6 275.3c.3 1 .9 1.5 1.2 1.2.3-.3 0-1.1-.7-1.8-1-.9-1.1-.8-.5.6zM83 276.4c0 .2.9.6 2 .9 1.1.3 1.8.1 1.4-.4-.5-.9-3.4-1.3-3.4-.5zM155.5 278.9c-.3.5-.2 1.2.3 1.5.5.3.9-.1.9-.9 0-1.7-.3-1.9-1.2-.6zM87.5 284.9c.6 1.1.4 1.3-.9.8-1-.4-1.5-.3-1.1.3.7 1.2 4.1.8 5.2-.6.5-.5.4-.6-.1-.2-.5.4-1.6.2-2.4-.5-1.3-1-1.4-.9-.7.2zM148.7 286.1c.7.7 1.5 1 1.8.7.3-.3-.2-.9-1.2-1.2-1.4-.6-1.5-.5-.6.5zM155.5 288c-.4.6-1.1.8-1.6.5-.5-.4-.9-.1-.9.4 0 1.6 1.6 1.3 3-.4.7-.8 1-1.5.7-1.5-.3 0-.9.5-1.2 1zM149.2 291.6c-.7.8-.8 1.4-.3 1.4 1 0 2.5-1.9 2-2.5-.2-.1-1 .3-1.7 1.1zM151.6 292.7c-.6 1.4-.5 1.5.5.6.7-.7 1-1.5.7-1.8-.3-.3-.9.2-1.2 1.2zM87.3 294.5c0 .8.4 1.2.9.9.4-.3.8-.9.8-1.5 0-.5-.4-.9-.8-.9-.5 0-.9.7-.9 1.5zM89.5 296.1c-.4.6-.4 1.3-.1 1.6.3.4.6.1.6-.6s.5-.9 1.2-.5.8.3.4-.4c-.9-1.5-1.3-1.5-2.1-.1zM146.4 298.2c0 1 .1 1.8.3 1.8.1 0 .7-.8 1.2-1.8.7-1.3.6-1.9-.2-1.9-.7 0-1.3.9-1.3 1.9zM143.5 298c.3.5.8 1 1.1 1 .2 0 .4-.5.4-1 0-.6-.5-1-1.1-1-.5 0-.7.4-.4 1zM91 299c-.9.6-1 1-.3 1 .6 0 1.5-.5 1.8-1 .8-1.2.4-1.2-1.5 0zM137.6 305.7c-.6 1.4-.5 1.5.5.6.7-.7 1-1.5.7-1.8-.3-.3-.9.2-1.2 1.2zM93 309.5c-.7.9-.8 1.5-.2 1.5.5 0 1.2-.7 1.6-1.5.3-.8.4-1.5.2-1.5s-.9.7-1.6 1.5zM132.2 314.6c-.7.8-.8 1.4-.3 1.4 1 0 2.5-1.9 2-2.5-.2-.1-1 .3-1.7 1.1zM95 314.9c0 .6.3 1.2.8 1.2 3.3.6 5.1.5 4.6-.3-.3-.4-1-.6-1.5-.2-.5.3-1.6 0-2.4-.6-1.1-.9-1.5-.9-1.5-.1zM129.3 316.8c.2 1.2.6 2.4 1 2.8.3.4.4-.4.2-1.6-.6-3-1.6-4-1.2-1.2zM125 322.2c0 .4.4.8.9.8.6 0 1.2-.4 1.5-.8.3-.5-.1-.9-.9-.9s-1.5.4-1.5.9zM103 326c0 .5.5 1 1.1 1 .5 0 .7-.5.4-1-.3-.6-.8-1-1.1-1-.2 0-.4.4-.4 1zM119.5 329.1c-.3.4.2.6 1 .5 2.1-.3 2.8-1.3 1-1.3-.9 0-1.8.4-2 .8zM116.5 329.8c-1.3.9-1.7 3.2-.6 3.2.5 0 1.1-.9 1.4-2 .6-2.2.6-2.2-.8-1.2zM109.5 332c-.4.6-.3 1 .2.9 2-.3 2.7.2 1.3 1.1-1.3.8-1.2 1 .3 1 2.1 0 2.2-1.3.3-2.9-1-.8-1.6-.9-2.1-.1zM114.8 335.9c.3.9.1 1.2-.6.7-.6-.3-1.7.2-2.4 1.2-1.4 1.8-3.1 2.2-4.4.9-.4-.4 0-.7.9-.7s1.8-.4 2.1-.9c.3-.4-.6-.6-1.9-.3-2.9.5-3.1 1.4-1 3.2 1.1.9 1.3 1.6.5 2.4-.5.5-1 1.5-1 2 0 .6.7 0 1.6-1.2.8-1.2 2-1.9 2.6-1.6.6.4.8.3.5-.2-.3-.6.8-1.9 2.4-2.9 3.5-2.4 4.3-4.1 1.9-4.1-1.1 0-1.6.5-1.2 1.5zM393.3 153.2c-1.9 2.4-2.4 3.8-1.5 3.8.5 0 1.4-1.1 2-2.5 1.3-2.7 1-3.2-.5-1.3zM386.7 165.2c-1.2 1-1.4 1.7-.6 2.8.9 1.3 1 1.3.6 0-.2-.8.5-2 1.7-2.7 1.2-.7 1.6-1.2 1-1.3-.5 0-1.8.6-2.7 1.2zM393.1 167.6c0 1.1.3 1.4.6.6.3-.7.2-1.6-.1-1.9-.3-.4-.6.2-.5 1.3zM379.1 171.6c0 1.1.3 1.4.6.6.3-.7.2-1.6-.1-1.9-.3-.4-.6.2-.5 1.3zM377.3 173.7c.4.6.1 1.4-.5 1.6-1 .4-1 .6 0 .6.7.1 1 .6.6 1.3-.4.6-.3.8.4.5 1.2-.8 1-3.2-.3-4.4-.4-.4-.5-.3-.2.4zM383.6 176.7c-.6 1.4-.5 1.5.5.6.7-.7 1-1.5.7-1.8-.3-.3-.9.2-1.2 1.2zM395.6 176.2c.2.4 1.4.5 2.6.3 3.2-.7 3.2-1.3-.1-1.1-1.6 0-2.7.4-2.5.8zM373.1 177.4c-.8 1-.9 1.6-.1 2.1.5.3 1 .5 1.1.3.4-1.8.7-3.8.4-3.8-.1 0-.8.6-1.4 1.4zM400.2 180.2c-.7.7-1.2 1.5-1.2 1.9 0 1.2 2.9.4 4.3-1.1.9-1.1.8-1.1-.7 0-1.8 1.4-1.9 1.3-1.3-.3.8-2 .5-2.1-1.1-.5zM373 182.1c0 .5.5.7 1 .4.6-.3 1-.8 1-1.1 0-.2-.4-.4-1-.4-.5 0-1 .5-1 1.1zM402.5 184c-.3.6.1.7.9.4 1.8-.7 2.1-1.4.7-1.4-.6 0-1.3.4-1.6 1zM364.3 187.8c-.4.9-1.4 2.3-2.2 3-1.4 1.1-1.3 1.2.5.3 1.2-.6 2.4-.8 2.7-.5.3.3.3-.4 0-1.5-.4-1.7-.2-2 1.1-1.5.9.3 1.6.4 1.6.1 0-1.5-3.2-1.4-3.7.1zM405.5 186.9c-.3.5-.1 1.2.5 1.6.6.4.7 1.1.4 1.7-.4.7-.2.8.5.4.8-.6.9-1.2.2-2-.6-.7-.8-1.6-.4-1.9.3-.4.4-.7 0-.7-.3 0-.8.4-1.2.9zM399.3 188.5c0 .8.4 1.2.9.9.5-.3.6-1 .3-1.5-.9-1.3-1.2-1.1-1.2.6zM403.6 189.3c.3 1 .9 1.5 1.2 1.2.3-.3 0-1.1-.7-1.8-1-.9-1.1-.8-.5.6zM359 194.3c-3.7 3.1-6.1 6.5-5.1 7.2.7.3 1 .3.9-.2-.2-.4.8-2 2.1-3.5 1.8-2 2.8-2.5 3.7-1.7.8.7 1.4.7 1.9-.1.4-.6.3-1-.2-.9-2 .3-2.7-.2-1.3-1.1.8-.5 1.1-1 .5-1-.5.1-1.7.6-2.5 1.3zM405.3 198.3c-.3.7-.3.9.1.5.5-.4 1.9-.3 3.3.3 1.3.5 2.2.5 1.9 0-.9-1.5-4.6-2-5.3-.8z"/><path d="M358 199.5c0 .2.6.8 1.3 1.4 1 .8 1.4.7 1.4-.2 0-.8-.6-1.4-1.4-1.4-.7 0-1.3.1-1.3.2zM407 203.4c0 .2.7.7 1.6 1 .8.3 1.2.2.9-.4-.6-1-2.5-1.4-2.5-.6zM411 206.1c0 .5.5.7 1 .4.6-.3 1-.8 1-1.1 0-.2-.4-.4-1-.4-.5 0-1 .5-1 1.1zM353 208.1c0 .5.5.7 1 .4.6-.3 1-.8 1-1.1 0-.2-.4-.4-1-.4-.5 0-1 .5-1 1.1zM411.5 209c-.3.5-.1 1 .4 1 .6 0 1.1-.5 1.1-1 0-.6-.2-1-.4-1-.3 0-.8.4-1.1 1zM409.6 212.2c.3.5 1 .6 1.5.3 1.3-.9 1.1-1.2-.6-1.2-.8 0-1.2.4-.9.9zM413 212c0 .5.5 1 1.1 1 .5 0 .7-.5.4-1-.3-.6-.8-1-1.1-1-.2 0-.4.4-.4 1zM411.4 217.8c.2 4.2 1.9 5.8 3.7 3.5 1.3-1.6 1.2-1.7-.3-.5-1.7 1.4-3.5.1-2.3-1.8.3-.5.2-1.7-.3-2.7-.8-1.3-.9-1-.8 1.5zM339.5 217c-.3.5-.1 1 .4 1 .6 0 1.1-.5 1.1-1 0-.6-.2-1-.4-1-.3 0-.8.4-1.1 1zM339.4 219.8c.4.3 1.4.7 2.2.8.9.1 1.3 0 1-.4-.4-.3-1.4-.7-2.2-.8-.9-.1-1.3 0-1 .4zM337 226.1c0 .5.5.7 1 .4.6-.3 1-.8 1-1.1 0-.2-.4-.4-1-.4-.5 0-1 .5-1 1.1zM415.6 227.8c1.3 2 1.4 2.6.3 3.3-1 .6-1 .9-.2.9 1.9 0 2.6-1.9 1.3-3.5-.6-.8-.9-1.8-.6-2.3.3-.5-.1-.9-.9-.9-1.3 0-1.3.4.1 2.5zM327.1 233.4c-.9 1.1-.9 1.6.1 2.2.7.4 1 .4.6-.1-.4-.4-.3-1.4.3-2.2.6-.7.9-1.3.6-1.3-.2 0-1 .6-1.6 1.4zM415.5 237c-.3.5-.1 1 .4 1 .6 0 1.1-.5 1.1-1 0-.6-.2-1-.4-1-.3 0-.8.4-1.1 1zM324.6 241.8c-.3.5.1.9.9.9s1.2-.4.9-.9c-.3-.4-.7-.8-.9-.8-.2 0-.6.4-.9.8zM315.7 249.1c.7.7 1.5 1 1.8.7.3-.3-.2-.9-1.2-1.2-1.4-.6-1.5-.5-.6.5zM413.5 250c-.3.5-.1 1 .4 1 .6 0 1.1-.5 1.1-1 0-.6-.2-1-.4-1-.3 0-.8.4-1.1 1zM416.7 252.1c.7.7 1.5 1 1.8.7.3-.3-.2-.9-1.2-1.2-1.4-.6-1.5-.5-.6.5zM309.8 253.7c-2.5 3-2.7 3.9-.8 3.9 1.3 0 1.6-.4 1-1.2-.6-.6-.7-1.4-.3-1.7.3-.4 1.2.1 2 1.1 1.3 1.5 1.3 1.5.3-.6-.9-1.8-.8-2.2.5-2.2 1 0 1.3.5.9 1.2s-.3.8.5.4c1.4-.9.5-2.6-1.3-2.6-.7 0-2 .8-2.8 1.7zM415.6 254.5c.4.8 0 2.3-.7 3.2-1.3 1.5-1.2 1.5.8.3 1.7-1.1 1.9-1.8 1.2-3.2-1.2-2.2-2.1-2.4-1.3-.3zM227 255.5c1.5 1.8-.6 3.1-2.5 1.5-1-.9-1.3-.8-1.1.5.1.8.4 1.6.7 1.7 1.1.3 4.9-1.4 4.9-2.3 0-.5.1-1.2.3-1.6.1-.3-.6-.7-1.6-.9-1.4-.2-1.6.1-.7 1.1zM230 258.1c0 .5.5.9 1.1.9.5 0 .7.6.3 1.2-.5.9-.2.8.9-.1 1-.8 2.1-1.1 2.4-.7.4.4.1 1.1-.7 1.6-.9.6-1 1-.3 1 1.7 0 2.7-2 1.6-3.1-1.3-1.3-5.3-2-5.3-.8zM227 260c-1.2.7-1 .9.7.7 1.2 0 1.9-.5 1.7-.9-.6-1-.6-1-2.4.2zM308 259.4c0 .2.7.7 1.6 1 .8.3 1.2.2.9-.4-.6-1-2.5-1.4-2.5-.6zM416 261.1c0 .5-.4.8-.9.4-.5-.3-1.2-.1-1.5.4-.4.5.2.8 1.1.7 1.5-.3 3.3-2.6 1.9-2.6-.3 0-.6.5-.6 1.1zM223 262c0 .5.5 1 1 1 .6 0 1-.5 1-1 0-.6-.4-1-1-1-.5 0-1 .4-1 1zM236.7 262.1c-1.9 1.1-2.3 2.9-.6 2.9.5 0 .7-.5.4-1-.3-.6-.2-1 .4-1 .5 0 1.1.5 1.3 1.2.3.8.7.6 1.1-.5.8-2.1-.4-2.8-2.6-1.6zM302.9 262.2c-.8 2.6-.5 3.6.8 3.1 1.1-.4 1.2-.8.3-1.3-.9-.6-.9-.9.1-1.3s1-.6.2-.6c-.7-.1-1.3 0-1.4.1zM416 264c-.9.6-1 1-.3 1 .6 0 1.5-.5 1.8-1 .8-1.2.4-1.2-1.5 0zM219.5 265.9c-.3.5-.2 1.2.3 1.5.5.3.9-.1.9-.9 0-1.7-.3-1.9-1.2-.6zM213.4 268.7c-1.3 2.1-1.4 2.5-.2 1.5.8-.7 2.4-1 3.4-.6 1.7.5 1.7.5-.1-.7-1.9-1.2-1.9-1.2 0-2 1.6-.6 1.6-.8.4-.8-.9-.1-2.5 1.1-3.5 2.6zM415.6 267.2c.3.5 1 .6 1.5.3 1.3-.9 1.1-1.2-.6-1.2-.8 0-1.2.4-.9.9zM223 268.1c0 .5.5.7 1 .4.6-.3 1-.8 1-1.1 0-.2-.4-.4-1-.4-.5 0-1 .5-1 1.1zM299 269.9c0 .6.4 1.2.8 1.5.5.3.9-.1.9-.9s-.4-1.5-.9-1.5c-.4 0-.8.4-.8.9zM296 271.8c0 .5.7.9 1.5.9s1.2-.4.9-.9c-.3-.4-.9-.8-1.5-.8-.5 0-.9.4-.9.8zM415 272c0 .5.5 1 1.1 1 .5 0 .7-.5.4-1-.3-.6-.8-1-1.1-1-.2 0-.4.4-.4 1zM214.6 273.8c-.3.5.1.9.9.9s1.2-.4.9-.9c-.3-.4-.7-.8-.9-.8-.2 0-.6.4-.9.8zM253 273.9c0 .7-.5.9-1.2.5-.7-.5-.8-.3-.3.5.5.9 1 1 1.8.2.6-.6.8-1.4.4-1.8-.4-.3-.7-.1-.7.6zM294 274c0 .5.5 1 1.1 1 .5 0 .7-.5.4-1-.3-.6-.8-1-1.1-1-.2 0-.4.4-.4 1zM210.4 276.2l-1.9 2.3 2.3-1.9c2.1-1.8 2.7-2.6 1.9-2.6-.2 0-1.2 1-2.3 2.2zM413.9 274.2c-.8 2.8-.5 3.5 1.5 3 1.8-.5 1.8-.7.3-1-.9-.2-1.5-.8-1.2-1.3.4-.5.4-.9.1-.9-.3 0-.6.1-.7.2zM293.6 277.8c-.3.5.1.9.9.9s1.2-.4.9-.9c-.3-.4-.7-.8-.9-.8-.2 0-.6.4-.9.8zM255.8 279.7c.7.3 1.6.2 1.9-.1.4-.3-.2-.6-1.3-.5-1.1 0-1.4.3-.6.6zM250 281.4c0 .2.8 1 1.8 1.7 1.5 1.3 1.6 1.2.3-.4s-2.1-2.1-2.1-1.3zM287 282c0 .5.5 1 1 1 .6 0 1-.5 1-1 0-.6-.4-1-1-1-.5 0-1 .4-1 1zM207.5 283c-.4.6-1.1.7-1.7.4-.7-.4-.8-.2-.4.5.6.9 1.1.9 2.2 0 1.4-1.1 1.8-1.9 1-1.9-.3 0-.8.5-1.1 1zM407.6 284.2c.3.5 1 .6 1.5.3 1.3-.9 1.1-1.2-.6-1.2-.8 0-1.2.4-.9.9zM198.5 287.2c-1.1 1.3-1.6 2-1.1 1.6.5-.4 1.6-.2 2.5.5 1.4 1 1.4 1 .4-.4-.7-.9-1-1.9-.6-2.2.3-.4 1.1.1 1.8 1 1 1.3 1.3 1.4 2 .2.5-.8.5-1.1 0-.7-.4.4-1.3.1-1.9-.8-1-1.3-1.4-1.3-3.1.8zM284.7 286.1c.7.7 1.5 1 1.8.7.3-.3-.2-.9-1.2-1.2-1.4-.6-1.5-.5-.6.5zM412 286.9c0 .7-.4 1-.9.6-.5-.3-1.2-.2-1.4.2-.3.5.8.9 2.5 1 1.7 0 2.7-.2 2.2-.6-.5-.3-1.2-1-1.6-1.5-.5-.5-.8-.4-.8.3zM266.6 291.8c-.3.5.1.9.9.9s1.2-.4.9-.9c-.3-.4-.7-.8-.9-.8-.2 0-.6.4-.9.8zM407.5 292.9c-.3.5-.2 1.2.3 1.5.5.3.9-.1.9-.9 0-1.7-.3-1.9-1.2-.6zM189.9 297.7c-1.3 1.7-1.3 1.7.6.3 1.1-.8 2.2-1.6 2.4-1.7.2-.2 0-.3-.6-.3s-1.7.8-2.4 1.7zM410.4 298c0 1.3.4 1.6 1 1 .7-.7.7-1.3 0-2-.6-.6-1-.3-1 1zM193.6 298.5c-.9 2.6-.7 3.2.5 1.2.6-1 .9-2.1.6-2.3-.2-.3-.7.2-1.1 1.1zM405.6 299.8c-.3.5.1.9.9.9s1.2-.4.9-.9c-.3-.4-.7-.8-.9-.8-.2 0-.6.4-.9.8zM408.3 302.5c-1.6 1.8-1.6 2.2 0 2.2.7 0 1.4-.9 1.4-1.9.2-2.1.2-2.1-1.4-.3zM193.6 304.7c-.6 1.4-.5 1.5.5.6.7-.7 1-1.5.7-1.8-.3-.3-.9.2-1.2 1.2zM403.9 304.7c-1.3 1.6-1.2 1.7.4.4 1.6-1.3 2.1-2.1 1.3-2.1-.2 0-1 .8-1.7 1.7zM188.5 308c1 1.1 2 2 2.3 2 .3 0-.3-.9-1.3-2s-2-2-2.3-2c-.3 0 .3.9 1.3 2zM182.2 308.2c-1.5 1.5-1.6 2.8-.2 2.8.6 0 .9-.6.8-1.3-.2-.6.3-1.1 1-.9.8.1 1.1-.2.7-.8-.8-1.3-.8-1.3-2.3.2zM403.3 309.5c0 .8.4 1.5.9 1.5.4 0 .8-.4.8-.9 0-.6-.4-1.2-.8-1.5-.5-.3-.9.1-.9.9zM177.6 312.9c-1.5 1.7-1.5 1.9.1 3.2 1.6 1.2 1.7 1.2.6-.2-1.3-1.6-.8-2.9.9-2.9.5 0 .6.5.2 1.2-.4.7-.3.8.4.4.6-.4.9-1.3.5-2.1-.7-1.9-.6-1.9-2.7.4zM403.5 313c-.3.6.1.7.9.4 1.8-.7 2.1-1.4.7-1.4-.6 0-1.3.4-1.6 1zM399.6 315.8c-.2.4.9.8 2.5.8 3.3.2 3.3-.4.1-1.1-1.2-.2-2.4-.1-2.6.3zM175 317.7c0 .5.5 1.5 1 2.3.7 1.2.9 1 .7-.8-.1-1.9-1.7-3.3-1.7-1.5zM399.5 324c.3.5.8 1 1.1 1 .2 0 .4-.5.4-1 0-.6-.5-1-1.1-1-.5 0-.7.4-.4 1zM398.6 326.7c.2.6-.2 1.4-.9 1.7-.8.3-.8.5-.1.5.6.1 1.8-.7 2.5-1.6.8-.9.9-1.4.2-1-.6.4-1.3.4-1.6 0-.2-.5-.2-.3-.1.4zM394.9 327.7c-1.3 1.6-1.2 1.7.4.4 1.6-1.3 2.1-2.1 1.3-2.1-.2 0-1 .8-1.7 1.7zM165 328c0 .6.7 1.3 1.5 1.6.8.4 1.3 1 1 1.4-.3.5-.1 1.1.4 1.4.5.4.8 0 .7-.8-.2-1.7-3.6-5.1-3.6-3.6zM171.6 329.8c-.3.5.1.9.9.9s1.2-.4.9-.9c-.3-.4-.7-.8-.9-.8-.2 0-.6.4-.9.8zM162.5 331c-.3.5-.5 1-.3 1.1 2.9.7 3.6.5 3.1-.7-.6-1.6-1.9-1.8-2.8-.4zM160.1 333.9c-1 .6-.9 1 .3 1.4.8.3 1.8.2 2.1-.3.8-1.3-.9-2-2.4-1.1zM393.3 336.5c0 .8.4 1.2.9.9.5-.3.6-1 .3-1.5-.9-1.3-1.2-1.1-1.2.6zM155.3 340c-1.1 1.6-1 1.8.2 1.4.8-.4 1.5-1.2 1.5-2 0-1.9-.3-1.8-1.7.6zM159.4 341.2l-1.9 2.3 2.3-1.9c1.2-1.1 2.2-2.1 2.2-2.3 0-.8-.8-.2-2.6 1.9zM388.5 343.1c-.4.5-1.3.8-2.1.5-2.1-.8-1.7.2.5 1.3 1.4.8 2.2.7 3-.3.8-.9.8-1.6.2-2-.5-.4-1.3-.1-1.6.5zM381 346c0 .5.5 1 1.1 1 .5 0 .7-.5.4-1-.3-.6-.8-1-1.1-1-.2 0-.4.4-.4 1zM146.5 351c-.3.6.1.7.9.4 1.8-.7 2.1-1.4.7-1.4-.6 0-1.3.4-1.6 1zM150 351.4c0 .2.8 1 1.8 1.7 1.5 1.3 1.6 1.2.3-.4s-2.1-2.1-2.1-1.3zM143.6 355.9c.9.9 3.4.9 3.4.1 0-.5-.9-.8-2-.7-1 .1-1.7.3-1.4.6zM379 356c0 .5.7.7 1.5.4.8-.4 1.5-.8 1.5-1 0-.2-.7-.4-1.5-.4s-1.5.4-1.5 1zM138.1 361.4c-1.6 2.5-2.3 4.2-1.6 3.9.8-.2 1.7-1.3 2-2.3.4-1.2 1.2-1.7 2.3-1.4 1.5.5 1.5.4.2-.5-1.3-1-1.3-1.2 0-2 .8-.5 1.8-.7 2.4-.4.5.3.6.1.2-.5-1.2-2-2.4-1.3-5.5 3.2zM145.5 360c.3.5.8 1 1.1 1 .2 0 .4-.5.4-1 0-.6-.5-1-1.1-1-.5 0-.7.4-.4 1z"/><path d="M139.9 363.7c0 .5-.3 1.9-.5 3.2-.2 1.4-.2 2.2.1 1.9.8-.8 1.7-5.8 1-5.8-.3 0-.5.3-.6.7zM370.1 364.6c0 1.1.3 1.4.6.6.3-.7.2-1.6-.1-1.9-.3-.4-.6.2-.5 1.3zM361.5 370c-.3.5-.1 1 .4 1 .6 0 1.1-.5 1.1-1 0-.6-.2-1-.4-1-.3 0-.8.4-1.1 1zM139 374c-.9.6-1 1-.3 1 .6 0 1.5-.5 1.8-1 .8-1.2.4-1.2-1.5 0zM147.6 377.9c-.3.5.2 1.5 1.2 2.2 1.5 1.2 1.6 1.2.5-.2-.7-.9-1-1.9-.6-2.2.3-.4.4-.7 0-.7-.3 0-.8.4-1.1.9zM355.5 378c.3.5.8 1 1.1 1 .2 0 .4-.5.4-1 0-.6-.5-1-1.1-1-.5 0-.7.4-.4 1zM151 379.4c0 .2.7.7 1.6 1 .8.3 1.2.2.9-.4-.6-1-2.5-1.4-2.5-.6zM348.4 384.1c-1.2 2 1.2 3.1 2.7 1.2 1.3-1.7 1.3-1.7-.5-.3s-1.9 1.3-1.3-.3c.7-1.9.2-2.3-.9-.6zM155.6 386.9c-.3.4.1 1.6.8 2.6 1 1.4 1.5 1.5 2.1.5.5-.9.4-1.1-.3-.6-1.1.6-1.6-.6-1.3-2.7.1-1-.7-.9-1.3.2zM162.7 388.1c.7.7 1.5 1 1.8.7.3-.3-.2-.9-1.2-1.2-1.4-.6-1.5-.5-.6.5zM343 388c0 .5.5 1 1 1 .6 0 1-.5 1-1 0-.6-.4-1-1-1-.5 0-1 .4-1 1zM335.5 389.9c-.3.5-.2 1.2.3 1.5.5.3.9-.1.9-.9 0-1.7-.3-1.9-1.2-.6zM163 392.2c0 .4.4.8.9.8.6 0 1.2-.4 1.5-.8.3-.5-.1-.9-.9-.9s-1.5.4-1.5.9zM327.2 395.3c-.8 1-.6 1.3 1.1 1.4 1.2 0 1.6-.1.9-.4-.6-.3-1-.9-.6-1.4.8-1.4-.2-1.1-1.4.4zM315.6 397.3c.3 1 .9 1.5 1.2 1.2.3-.3 0-1.1-.7-1.8-1-.9-1.1-.8-.5.6zM171.4 399.3c-.4.7-.3.9.1.4.5-.4 1.6-.1 2.4.7 1.2 1.1 2.1 1.2 3.1.5 1.2-.9 1.2-1-.2-.5-1 .3-1.8.1-1.8-.3 0-1.5-2.9-2.1-3.6-.8zM312 399.4c0 .2.8 1 1.8 1.7 1.5 1.3 1.6 1.2.3-.4s-2.1-2.1-2.1-1.3zM320.9 400.3c.6.8.7 1.8.3 2.2-.4.5-.1.5.6.1 1-.6 1-1.1.1-2.2-.6-.8-1.4-1.4-1.6-1.4-.3 0 0 .6.6 1.3zM318.6 402.7c-.6 1.4-.5 1.5.5.6.7-.7 1-1.5.7-1.8-.3-.3-.9.2-1.2 1.2zM182 403.4c0 .2.7.6 1.5 1 .8.3 1.5.1 1.5-.4 0-.6-.7-1-1.5-1s-1.5.2-1.5.4zM188.3 404.2c-1.3.6-2.3 1.6-2.3 2.1 0 .6.3.7.7.4.3-.4 1.3-.1 2.2.6 1.4 1.1 1.5 1 .1-.7-1.3-1.8-1.3-1.9.1-1.4 1 .4 1.6.1 1.6-.8 0-.8-.1-1.4-.1-1.3-.1 0-1.1.5-2.3 1.1zM194.5 407.3c-1.4 1.1-1.5 1.6-.5 2.2.9.5 1.1.4.6-.3-.4-.7-.3-1.2.3-1.2.5 0 1.1.6 1.4 1.2.3.7.4.3.4-1-.1-1.2-.2-2.2-.2-2.2-.1 0-.9.6-2 1.3zM200.6 407.8c-.3.5.1.9.9.9s1.2-.4.9-.9c-.3-.4-.7-.8-.9-.8-.2 0-.6.4-.9.8zM305.5 408c.3.5.8 1 1.1 1 .2 0 .4-.5.4-1 0-.6-.5-1-1.1-1-.5 0-.7.4-.4 1zM205.6 411.3c.3 1 .9 1.5 1.2 1.2.3-.3 0-1.1-.7-1.8-1-.9-1.1-.8-.5.6zM208.5 411.9c-.3.5-.2 1.2.3 1.5.5.3.9-.1.9-.9 0-1.7-.3-1.9-1.2-.6zM215 412c0 .5.5 1 1.1 1 .5 0 .7-.5.4-1-.3-.6-.8-1-1.1-1-.2 0-.4.4-.4 1zM219.3 412.9c-1.3 1.1-2.3 2.3-2.3 2.7 0 .4 1-.2 2.3-1.4 1.3-1.2 2.7-1.9 3.2-1.5.4.5.5.2.1-.5-.9-1.5-.6-1.5-3.3.7zM273.5 412c-.4.6-.3 1 .2.9 2-.3 2.7.2 1.3 1.1-.9.6-1 1-.3 1 1.9 0 2.4-1.7.9-2.9-1-.9-1.6-.9-2.1-.1zM288.9 412.6c1.2.9 2.6 1.2 3.4.7.6-.4 1.5-.8 1.9-.8.3 0 .9-.3 1.3-.7.4-.3 0-.5-.9-.4-.8.1-1.9.5-2.2.9-1 1-2.6.9-2-.1.2-.4-.5-.9-1.6-.9-2.1-.2-2.1-.2.1 1.3zM231.5 412.9c-.3.5-.2 1.2.3 1.5.5.3.9-.1.9-.9 0-1.7-.3-1.9-1.2-.6zM250.6 413.8c-.2.4.4.8 1.4.8 1 0 1.6-.4 1.4-.8-.3-.4-.9-.8-1.4-.8-.5 0-1.1.4-1.4.8zM240 416.9c-2.4.7-2.4.7-.3 1.3 1.4.4 2.4.1 2.7-.8.3-.8.4-1.4.3-1.3-.1.1-1.3.4-2.7.8zM255 416.6c0 .1.6.7 1.4 1.3 1 .9 1.5.8 1.9-.2.3-.8-.3-1.3-1.4-1.3-1.1 0-1.9.1-1.9.2zM251.6 417.8c-.2.4.4.9 1.5.9 1.1.1 1.7-.2 1.4-.8-.7-1.1-2.2-1.2-2.9-.1zM128.6 375.2c.3.5 1 .6 1.5.3 1.3-.9 1.1-1.2-.6-1.2-.8 0-1.2.4-.9.9zM454 27.4c0 .2.8 1 1.8 1.7 1.5 1.3 1.6 1.2.3-.4s-2.1-2.1-2.1-1.3zM461 31.1c0 .5.5.7 1 .4.6-.3 1-.8 1-1.1 0-.2-.4-.4-1-.4-.5 0-1 .5-1 1.1zM445 34c0 .5.5 1 1.1 1 .5 0 .7-.5.4-1-.3-.6-.8-1-1.1-1-.2 0-.4.4-.4 1zM453.1 35.3c-1.3 2.1-1.2 2.1.5.5 1-1 1.6-2 1.3-2.2-.3-.3-1.1.5-1.8 1.7zM476.6 36.6c-.4 1.1-.1 1.2 1.3.5 1-.6 2-.9 2.2-.8.2.1.3 0 .1-.2-.7-1.1-3.1-.8-3.6.5zM435.1 39.3c-.8 1-.7 1.4.2 1.4.8 0 1.4-.6 1.4-1.4 0-.7-.1-1.3-.2-1.3-.2 0-.8.6-1.4 1.3zM438.5 40c-.3.6.1.7.9.4 1.8-.7 2.1-1.4.7-1.4-.6 0-1.3.4-1.6 1zM476.7 40.7c.3.7.6 1.3.8 1.3.2 0 .5-.6.8-1.3.3-.8-.1-1.4-.8-1.4-.7 0-1.1.6-.8 1.4zM243.3 44.5c0 .8.4 1.2.9.9.5-.3.6-1 .3-1.5-.9-1.3-1.2-1.1-1.2.6zM261.6 48.7c-.6 1.4-.5 1.5.5.6.7-.7 1-1.5.7-1.8-.3-.3-.9.2-1.2 1.2zM431 48c0 .5.7.7 1.5.4.8-.4 1.5-.8 1.5-1 0-.2-.7-.4-1.5-.4s-1.5.4-1.5 1zM473.3 49c-.1 1.1.2 2 .5 2 .4 0 .8-.9.9-2 .1-1.1-.2-2-.5-2-.4 0-.8.9-.9 2zM231.5 49.9c-.3.5-.2 1.2.3 1.5.5.3.9-.1.9-.9 0-1.7-.3-1.9-1.2-.6zM257.3 50.5c-.3.9-.3 1.8-.1 2.1.3.3.8-.4 1.1-1.6.6-2.3-.1-2.7-1-.5zM273.9 49.7c-.1.5-.1 1.1 0 1.5 0 .5-.6.8-1.4.8-1.8 0-2 1.6-.3 2.6.6.4.8.3.4-.4-.3-.5-.1-1.2.6-1.4 1-.4 2.2-3.8 1.2-3.8-.2 0-.5.3-.5.7zM424 50c-.8.5-1.1 1.3-.6 1.7.5.4 1.1.2 1.3-.5.3-.6 1-.9 1.5-.6.7.4.8.2.4-.4-.9-1.4-.7-1.4-2.6-.2zM477 49.9c0 .6.4 1.3 1 1.6.6.3.7-.1.4-.9-.7-1.8-1.4-2.1-1.4-.7zM242.1 50.8c-.1.7-.5 1.1-1 .7-.5-.3-1.3 0-1.7.6-.4.8-.9.7-1.5-.2-.7-1.1-.9-1-.9.4 0 1.3.6 1.6 2.6 1.3 3.2-.6 3.8-1.1 3.1-2.8-.4-1.1-.6-1.1-.6 0zM219.6 52.5c-.3.8-.1 1.5.4 1.5.6 0 1-.7 1-1.5s-.2-1.5-.4-1.5-.6.7-1 1.5zM230.2 52.6c1 1 2 1.6 2.2 1.3.3-.3-.5-1.1-1.7-1.8-2.1-1.3-2.1-1.2-.5.5zM250.6 51.8c-.2.4.4.8 1.5.8 1 0 1.9-.4 1.9-.8s-.6-.8-1.4-.8c-.8 0-1.7.4-2 .8zM260.6 52.6c-.5 1.4-.4 1.5.9.4 1.7-1.4 1.9-2 .6-2-.5 0-1.2.7-1.5 1.6zM264.5 51.9c-.3.5-.2 1.2.3 1.5.5.3.9-.1.9-.9 0-1.7-.3-1.9-1.2-.6zM283.6 51.8c-.3.5.1.9.9.9s1.2-.4.9-.9c-.3-.4-.7-.8-.9-.8-.2 0-.6.4-.9.8zM421.3 52.9c0 1.1.5 1.8.9 1.5.4-.3.5-1.1.1-1.9-.7-2.1-1.2-1.9-1 .4zM210.5 54c-.3.6.1.7.9.4 1.8-.7 2.1-1.4.7-1.4-.6 0-1.3.4-1.6 1zM214.6 54.4c.2.6 1.3 1.2 2.4 1.2 2.3 0 1.7-1.2-.9-1.9-1.2-.3-1.8 0-1.5.7zM222.5 54c-.3.6.1.7.9.4 1.8-.7 2.1-1.4.7-1.4-.6 0-1.3.4-1.6 1zM195.4 55.1c-.3.6-.2 1.5.3 2s.9.1.9-1.1c0-2.3-.2-2.4-1.2-.9zM287.8 54.7c.7.3 1.6.2 1.9-.1.4-.3-.2-.6-1.3-.5-1.1 0-1.4.3-.6.6zM291.2 54.4c.4.5.4 1.4-.2 2.1-.6.8-.2 1.1 1.4 1.1 1.2 0 2.3-.6 2.3-1.3 0-.7-.3-1.1-.5-.8-.3.3-1.2-.1-2.1-.7-.9-.7-1.3-.8-.9-.4zM202.7 56.9c-.4 1.7-.3 2.1.5 1.3.5-.5.8-1.6.6-2.3-.3-.8-.7-.3-1.1 1zM198.7 58.5c.3.8.9 1.2 1.4.9 1.2-.7 1.1-1.1-.5-1.7-1-.4-1.3-.1-.9.8zM300.5 57.9c-.3.5-.2 1.2.3 1.5.5.3.9-.1.9-.9 0-1.7-.3-1.9-1.2-.6zM410.4 59.2c0 1 .1 1.8.3 1.8.1 0 .7-.8 1.2-1.8.7-1.3.6-1.9-.2-1.9-.7 0-1.3.9-1.3 1.9zM305.1 59.6c0 1.1.3 1.4.6.6.3-.7.2-1.6-.1-1.9-.3-.4-.6.2-.5 1.3zM407.5 59c-.3.5-.1 1 .4 1 .6 0 1.1-.5 1.1-1 0-.6-.2-1-.4-1-.3 0-.8.4-1.1 1zM194.4 60.2c1 .6 2.2.6 2.6.2.5-.5-.3-1-1.8-1.1-2.2-.1-2.4 0-.8.9zM311.6 62.2c.3.5 1 .6 1.5.3 1.3-.9 1.1-1.2-.6-1.2-.8 0-1.2.4-.9.9zM403 62.1c0 .5.5.7 1 .4.6-.3 1-.8 1-1.1 0-.2-.4-.4-1-.4-.5 0-1 .5-1 1.1zM473.6 62.2c.3.5 1 .6 1.5.3 1.3-.9 1.1-1.2-.6-1.2-.8 0-1.2.4-.9.9zM317 63.4c0 .8.4 1.7.9 2 .5.4.7-.3.4-1.4-.6-2.3-1.3-2.6-1.3-.6zM322 63.5c0 .2.6.8 1.3 1.4 1 .8 1.4.7 1.4-.2 0-.8-.6-1.4-1.4-1.4-.7 0-1.3.1-1.3.2zM402.6 65.2c.3.5 1 .6 1.5.3 1.3-.9 1.1-1.2-.6-1.2-.8 0-1.2.4-.9.9zM167.5 65.9c-.3.5-.2 1.2.3 1.5.5.3.9-.1.9-.9 0-1.7-.3-1.9-1.2-.6zM393.6 67.4c.3.9 1 1.6 1.5 1.6h1.4c.8 0 .6-1.5-.2-1.5-.5 0-1.4-.4-2-.8-.9-.6-1.1-.3-.7.7zM170.4 67.8c.3.5 0 1.3-.6 1.5-.9.4-1 .6-.1.6 1.7.1 2.5-1.6 1.2-2.5-.7-.4-.9-.3-.5.4zM333.3 68.5c0 .8.4 1.2.9.9.4-.3.8-.9.8-1.5 0-.5-.4-.9-.8-.9-.5 0-.9.7-.9 1.5zM330.5 68.9c-.3.5-.2 1.2.3 1.5.5.3.9-.1.9-.9 0-1.7-.3-1.9-1.2-.6zM163.1 69.7c.4 2.1-.2 3.4-1.3 2.7-.7-.4-.8-.3-.4.4 1 1.6 1.4 1.5 2.6-.7.7-1.4.7-2.2 0-2.6-.6-.4-1-.3-.9.2zM341 70.4c0 .2.8 1 1.8 1.7 1.5 1.3 1.6 1.2.3-.4s-2.1-2.1-2.1-1.3zM334 71.4c0 .2.7.7 1.6 1 .8.3 1.2.2.9-.4-.6-1-2.5-1.4-2.5-.6zM464.5 73c-.3.6.1.7.9.4 1.8-.7 2.1-1.4.7-1.4-.6 0-1.3.4-1.6 1zM345.5 74c-.8 1.3.3 3 1.8 3 .8 0 .7-.3-.2-.9-.7-.5-1-1.4-.7-2 .4-.6.5-1.1.2-1.1s-.8.4-1.1 1zM379 73.8c0 .5.7.9 1.5.9s1.2-.4.9-.9c-.3-.4-.9-.8-1.5-.8-.5 0-.9.4-.9.8zM469.3 74.5c0 .8.4 1.2.9.9.5-.3.6-1 .3-1.5-.9-1.3-1.2-1.1-1.2.6zM342 74.7c0 .6.8 1.7 1.8 2.4 1.6 1.3 1.6 1.3.2-.6-.8-1.1-1.6-2.2-1.7-2.4-.2-.2-.3 0-.3.6zM465.5 74.9c-.3.5-.2 1.2.3 1.5.5.3.9-.1.9-.9 0-1.7-.3-1.9-1.2-.6zM149.3 77c2.8 2.3 3.7 2.5 3.7.9 0-.5-.4-.8-.9-.5-.5.3-1.4-.1-2.1-.9-.7-.8-1.7-1.5-2.3-1.5-.5 0 .2.9 1.6 2zM349.6 75.8c-.3.4.4.9 1.5.9 2.3.2 2.5-.3.4-1-.8-.4-1.6-.3-1.9.1zM375.5 77.9c-.3.5-.2 1.2.3 1.5.5.3.9-.1.9-.9 0-1.7-.3-1.9-1.2-.6zM347.5 79c.3.5.8 1 1.1 1 .2 0 .4-.5.4-1 0-.6-.5-1-1.1-1-.5 0-.7.4-.4 1zM367.5 80c-.3.5-.1 1 .4 1 .6 0 1.1-.5 1.1-1 0-.6-.2-1-.4-1-.3 0-.8.4-1.1 1zM143 82c0 .5.5 1 1 1 .6 0 1-.5 1-1 0-.6-.4-1-1-1-.5 0-1 .4-1 1zM463.3 82.7c-.3.7-1 1-1.6.6-.6-.4-.7-.1-.2.7.6 1 1.1 1 2-.3.7-.9 1.4-1.4 1.7-1.1.4.3.8.1 1.2-.4.3-.5-.2-.9-1-.9-.9 0-1.8.6-2.1 1.4zM363.5 83.1c-.4.6-.5 1.2-.2 1.5.2.3.7-.2 1-1.1.7-1.7.1-2-.8-.4zM140 84c-1.1.7-1.1 1-.2 1 .8 0 1 .5.6 1.2-.5.9-.3.9.9-.1.9-.7 1.4-1.7 1.1-2.2-.6-1.1-.6-1.1-2.4.1zM358.4 83.8c.4.3 1.4.7 2.2.8.9.1 1.3 0 1-.4-.4-.3-1.4-.7-2.2-.8-.9-.1-1.3 0-1 .4zM367 83.9c0 .6.4 1.2.8 1.5.5.3.9-.1.9-.9s-.4-1.5-.9-1.5c-.4 0-.8.4-.8.9zM460 85.9c0 .6.4 1.3 1 1.6.6.3.7-.1.4-.9-.7-1.8-1.4-2.1-1.4-.7zM459 88.4c0 .2.8 1 1.8 1.7 1.5 1.3 1.6 1.2.3-.4s-2.1-2.1-2.1-1.3zM131.5 90.1c-.4.6-.4 1.3-.1 1.6.3.4.6.1.6-.6 0-.8.6-1.1 1.6-.7.8.3 1.2.2.9-.4-.8-1.3-2.2-1.3-3 .1zM463.6 93.3c.3 1 .9 1.5 1.2 1.2.3-.3 0-1.1-.7-1.8-1-.9-1.1-.8-.5.6zM457.6 94.7c-.6 1.4-.5 1.5.5.6.7-.7 1-1.5.7-1.8-.3-.3-.9.2-1.2 1.2zM122.6 98.5c-.3.8-1.2 1.2-2.1.9-.8-.3-1.5-.1-1.5.4 0 2 1.8 2.1 3.9.3 1.2-1.1 1.8-2.2 1.3-2.5-.6-.3-1.2.1-1.6.9zM457.5 98c.3.5.8 1 1.1 1 .2 0 .4-.5.4-1 0-.6-.5-1-1.1-1-.5 0-.7.4-.4 1zM455 99.4c0 .2.7.7 1.6 1 .8.3 1.2.2.9-.4-.6-1-2.5-1.4-2.5-.6zM453.7 104.5c-.4.8-.3 1.6.1 1.9.4.3.9-.4.9-1.5.2-2.3-.3-2.5-1-.4zM109.6 110.2c.5.7.2.9-.9.5s-1.4-.2-1 .9c.4 1.1.9 1.2 1.9.3 1.2-1 1.1-2.9-.2-2.9-.3 0-.2.5.2 1.2zM105 114.9c0 .7-.5.9-1 .6-.6-.4-.9-.1-.8.7.2.7-.3 1.2-.9 1-.7-.1-1.3.2-1.3.8 0 .5.4 1 .8 1 1.4 0 4.6-3.9 3.9-4.7-.4-.3-.7-.1-.7.6zM449.6 114.9c-.4.5.3.7 1.4.4 2.3-.6 2.6-1.3.6-1.3-.8 0-1.7.4-2 .9zM452.6 117.8c-.3.5.1.9.9.9s1.2-.4.9-.9c-.3-.4-.7-.8-.9-.8-.2 0-.6.4-.9.8zM98.5 120.1c-.4.6-.5 1.2-.2 1.5.2.3.7-.2 1-1.1.7-1.7.1-2-.8-.4zM95 122.1c0 .5.5.7 1 .4.6-.3 1-.8 1-1.1 0-.2-.4-.4-1-.4-.5 0-1 .5-1 1.1zM448 122c1.2.8 1.2 1 .1 1-.8 0-1.2.2-.9.5.3.3 1.3.2 2.2-.1 1.4-.5 1.5-.9.4-1.5-.7-.5-1.7-.9-2.3-.9-.5 0-.3.5.5 1zM94.6 126.7c.2.6-.2 1.4-.9 1.7-.8.3-.8.5-.1.5.6.1 1.8-.7 2.5-1.6.8-.9.9-1.4.2-1-.6.4-1.3.4-1.6 0-.2-.5-.2-.3-.1.4zM446.9 126.1c-1.5.9-2 3.7-.9 4.4.5.3.7-.4.5-1.5-.2-1.1 0-2.1.6-2.1.5-.1 1.3-.2 1.8-.3.5 0 1.2-.4 1.5-.7.9-.8-2.1-.7-3.5.2zM86 136.4c0 .8.4 1.7.9 2 .5.4.7-.3.4-1.4-.6-2.3-1.3-2.6-1.3-.6zM412.6 142.6c.9 1.3 2 2.2 2.4 1.9.9-.5 4.2 2.9 3.5 3.7-.3.2.8 1.7 2.4 3.2 2.8 2.7 5.1 2.8 5.1.3 0-.7-.4-.6-1 .3-.7 1.2-1.2 1.1-2.9-.5-1.9-1.7-2-2-.6-4.1 1.6-2.5 1.2-3.1-2.2-2.8-2.1.1-2.8-.7-2.4-2.9 0-.4-.2-.6-.6-.6-.5.1-1 0-1.3-.1-.3-.1-1.3-.3-2.2-.5-1.6-.3-1.6-.1-.2 2.1zm8.4 3.8c-.7.7-1.3.7-2 0-.6-.6-.3-1 1-1s1.6.4 1 1zM79.5 142.9c-.3.5-.2 1.2.3 1.5.5.3.9-.1.9-.9 0-1.7-.3-1.9-1.2-.6zM78.1 148.6c0 1.1.3 1.4.6.6.3-.7.2-1.6-.1-1.9-.3-.4-.6.2-.5 1.3zM76 152.5c-1.1 1.3-1 1.4.4.9.9-.3 1.6-1 1.6-1.5 0-1.3-.6-1.1-2 .6zM425.5 156c.3.5-.2 1-1.2 1-1.5 0-1.6.2-.3 1 .9.6 1.7.5 2.2-.3 1.1-1.7 1-2.7-.3-2.7-.5 0-.7.4-.4 1zM433.6 157.8c-.3.5.1.9.9.9s1.2-.4.9-.9c-.3-.4-.7-.8-.9-.8-.2 0-.6.4-.9.8zM429.5 160.9c-.3.5-.2 1.2.3 1.5.5.3.9-.1.9-.9 0-1.7-.3-1.9-1.2-.6zM63.5 163.1c-.4.6-.5 1.2-.2 1.5.2.3.7-.2 1-1.1.7-1.7.1-2-.8-.4zM429 165.5c-.7.9-.8 1.5-.2 1.5.5 0 1.2-.7 1.6-1.5.3-.8.4-1.5.2-1.5s-.9.7-1.6 1.5zM430.6 171.6c-.5 1.4-.4 1.5.9.4 1.7-1.4 1.9-2 .6-2-.5 0-1.2.7-1.5 1.6zM65 172c0 .5.5 1 1.1 1 .5 0 .7-.5.4-1-.3-.6-.8-1-1.1-1-.2 0-.4.4-.4 1zM434 172c-.9.6-1 1-.3 1 .6 0 1.5-.5 1.8-1 .8-1.2.4-1.2-1.5 0zM435.5 175c-.3.5-.3 1 .1 1s-.1.7-1.2 1.6c-1.8 1.5-1.8 1.5 0 .6 1.1-.5 2.1-1.7 2.2-2.6.3-1.8-.2-2.1-1.1-.6zM63 179.5c0 .2.6.8 1.3 1.4 1 .8 1.4.7 1.4-.2 0-.8-.6-1.4-1.4-1.4-.7 0-1.3.1-1.3.2zM436.3 180.2c-1.1 1.9-1.3 3.9-.1 3.2.5-.3.7-.9.4-1.2-.3-.3-.1-1.1.5-1.9.6-.7.9-1.3.6-1.3-.3 0-.9.6-1.4 1.2zM438.6 184.2c.3.4.9.8 1.5.8.5 0 .9-.4.9-.8 0-.5-.7-.9-1.5-.9s-1.2.4-.9.9zM61.5 186c.3.5.8 1 1.1 1 .2 0 .4-.5.4-1 0-.6-.5-1-1.1-1-.5 0-.7.4-.4 1zM439.4 187.4c.1.8.5 1.8.8 2.2.4.3.5-.1.4-1-.1-.8-.5-1.8-.8-2.2-.4-.3-.5.1-.4 1zM58.5 188c-.3.6.1.7.9.4 1.8-.7 2.1-1.4.7-1.4-.6 0-1.3.4-1.6 1zM60.6 190.2c.3.5 1 .6 1.5.3 1.3-.9 1.1-1.2-.6-1.2-.8 0-1.2.4-.9.9zM55 190.4c0 .2.8 1 1.8 1.7 1.5 1.3 1.6 1.2.3-.4s-2.1-2.1-2.1-1.3zM59.4 192.4c.1.8.5 1.8.8 2.2.4.3.5-.1.4-1-.1-.8-.5-1.8-.8-2.2-.4-.3-.5.1-.4 1zM440 196c1.8 1.2 3 1.3 3 .2 0-.4-1-.9-2.2-.9-1.8-.2-2 0-.8.7zM440.6 199.2c.3.5 1 .6 1.5.3 1.3-.9 1.1-1.2-.6-1.2-.8 0-1.2.4-.9.9zM57.9 199.7c0 .5-.2 1.6-.4 2.6-.2 1.1-.1 1.6.3 1.3.8-.8 1.4-4.6.7-4.6-.3 0-.5.3-.6.7zM444.7 202.1c.7.7 1.5 1 1.8.7.3-.3-.2-.9-1.2-1.2-1.4-.6-1.5-.5-.6.5zM55.5 206c-.3.6.1.7.9.4 1.8-.7 2.1-1.4.7-1.4-.6 0-1.3.4-1.6 1zM51.5 207.1c-.4.6-.5 1.2-.2 1.5.2.3.7-.2 1-1.1.7-1.7.1-2-.8-.4zM54 211.6c.8 1 1.5 2 1.6 2.2.1.2.4-.1.7-.5.3-.5-.4-1.5-1.6-2.3-2.1-1.2-2.1-1.2-.7.6zM444.8 210.7c-1 .2-1.8.9-1.8 1.4 0 .6.8.5 2-.1 1.1-.6 2-1.3 2-1.5 0-.3-.1-.4-.2-.4-.2.1-1.1.3-2 .6zM52 218.5c-.7.9-1.1 1.7-.9 2 .3.2 1-.5 1.7-1.5 1.4-2.4 1-2.6-.8-.5zM446.6 220.2c.3.5 1 .6 1.5.3 1.3-.9 1.1-1.2-.6-1.2-.8 0-1.2.4-.9.9zM53.5 220.9c-.3.5-.2 1.2.3 1.5.5.3.9-.1.9-.9 0-1.7-.3-1.9-1.2-.6zM45.5 223.9c-.3.5-.2 1.2.3 1.5.5.3.9-.1.9-.9 0-1.7-.3-1.9-1.2-.6zM50.6 223.8c-.3.5.1.9.9.9s1.5-.4 1.5-.9c0-.4-.4-.8-.9-.8-.6 0-1.2.4-1.5.8zM445.1 225.7c0 .4.4 1.7.9 2.8.8 1.9.9 1.9.9-.2.1-1.2-.3-2.5-.9-2.8-.5-.3-1-.3-.9.2zM51.5 229c-.3.5-.1 1 .4 1 .6 0 1.1-.5 1.1-1 0-.6-.2-1-.4-1-.3 0-.8.4-1.1 1zM447 232c0 .5.5 1 1 1 .6 0 1-.5 1-1 0-.6-.4-1-1-1-.5 0-1 .4-1 1zM51.3 237.5c0 .8.4 1.2.9.9.5-.3.6-1 .3-1.5-.9-1.3-1.2-1.1-1.2.6zM47.6 237.8c-.3.5.1.9.9.9s1.2-.4.9-.9c-.3-.4-.7-.8-.9-.8-.2 0-.6.4-.9.8zM48 242c-.9.6-1 1-.3 1 .6 0 1.5-.5 1.8-1 .8-1.2.4-1.2-1.5 0zM51 242.1c0 .5.5.7 1 .4.6-.3 1-.8 1-1.1 0-.2-.4-.4-1-.4-.5 0-1 .5-1 1.1zM447.5 242c.3.5.8 1 1.1 1 .2 0 .4-.5.4-1 0-.6-.5-1-1.1-1-.5 0-.7.4-.4 1zM51.4 244.8c.3.5 0 1.3-.6 1.5-.9.4-1 .6-.1.6 1.7.1 2.5-1.6 1.2-2.5-.7-.4-.9-.3-.5.4zM447.4 248.1c-.4.7-.3.9.4.5.5-.3 1.3 0 1.5.6.4.9.6 1 .6.1.1-1.7-1.6-2.5-2.5-1.2zM51.9 254.2c-.8 1.6-.3 4.5.7 4.5s1.1-.4.3-1.3c-.6-.7-.8-1.8-.4-2.4.3-.5.4-1 .1-1-.3 0-.7.1-.7.2zM447.2 260.2c-1.5 1.5-1.5 2.5.1 3.1.8.3 1.3-.4 1.3-1.9 0-1.3 0-2.4-.1-2.4s-.6.5-1.3 1.2zM49 263.9c0 .6.4 1.2.8 1.5.5.3.9-.1.9-.9s-.4-1.5-.9-1.5c-.4 0-.8.4-.8.9zM449 266c0 .5.5 1 1.1 1 .5 0 .7-.5.4-1-.3-.6-.8-1-1.1-1-.2 0-.4.4-.4 1zM49.6 267.8c-.3.5.1.9.9.9s1.2-.4.9-.9c-.3-.4-.7-.8-.9-.8-.2 0-.6.4-.9.8zM446 268c0 .6.7 1 1.5 1s1.5-.2 1.5-.4-.7-.6-1.5-1c-.8-.3-1.5-.1-1.5.4zM445.9 272.3c-1.3 4 .2 7 2.4 4.8.9-.9.8-1.1-.5-.6-2.3.9-2.4-1.1-.2-2.3 1.5-.8 1.5-1 0-1.5-.9-.4-1.6-.5-1.7-.4zM49 278.1c0 .5.5.7 1 .4.6-.3 1-.8 1-1.1 0-.2-.4-.4-1-.4-.5 0-1 .5-1 1.1zM52 280c0 .5.5 1 1.1 1 .5 0 .7-.5.4-1-.3-.6-.8-1-1.1-1-.2 0-.4.4-.4 1zM445 282.5c-1.1 1.3-1 1.4.4.9.9-.3 1.6-1 1.6-1.5 0-1.3-.6-1.1-2 .6zM55 286c0 .5.5 1 1.1 1 .5 0 .7-.5.4-1-.3-.6-.8-1-1.1-1-.2 0-.4.4-.4 1zM446.6 290.2c.3.5 1 .6 1.5.3 1.3-.9 1.1-1.2-.6-1.2-.8 0-1.2.4-.9.9zM56 293.1c0 .5-.4.8-.9.4-.5-.3-1.2-.1-1.5.4-.4.5.2.8 1.1.7 1.5-.3 3.3-2.6 1.9-2.6-.3 0-.6.5-.6 1.1zM57 296c0 .5.5 1 1.1 1 .5 0 .7-.5.4-1-.3-.6-.8-1-1.1-1-.2 0-.4.4-.4 1zM443.5 295.9c-.3.5-.2 1.2.3 1.5.5.3.9-.1.9-.9 0-1.7-.3-1.9-1.2-.6zM55.2 299.3c-.8 1-.6 1.3 1.1 1.4 1.2 0 1.6-.1.9-.4-.6-.3-1-.9-.6-1.4.8-1.4-.2-1.1-1.4.4zM442 299.8c0 .5.7.9 1.5.9s1.2-.4.9-.9c-.3-.4-.9-.8-1.5-.8-.5 0-.9.4-.9.8zM55 308.1c0 .5.5.7 1 .4.6-.3 1-.8 1-1.1 0-.2-.4-.4-1-.4-.5 0-1 .5-1 1.1zM57.5 310c.3.5.8 1 1.1 1 .2 0 .4-.5.4-1 0-.6-.5-1-1.1-1-.5 0-.7.4-.4 1zM61.4 314c.1 1.6.6 3.3 1.1 3.7.4.4.5.2.1-.5s-.2-1.2.6-1.2c.9 0 1-.3.2-.8-.6-.4-1-1.5-.8-2.5.1-.9-.2-1.7-.6-1.7-.5 0-.7 1.3-.6 3zM438.6 313.8c-.3.5.1.9.9.9s1.2-.4.9-.9c-.3-.4-.7-.8-.9-.8-.2 0-.6.4-.9.8zM437.5 318c-.3.5-.1 1 .4 1 .6 0 1.1-.5 1.1-1 0-.6-.2-1-.4-1-.3 0-.8.4-1.1 1zM63.7 320.9c.2.7-.2 2.1-.9 2.9-1 1.2-1 1.4-.1.8.7-.4 1.8-1.6 2.4-2.8.7-1.2.7-1.8.1-1.4-.6.3-1.2.3-1.5-.1-.2-.5-.2-.2 0 .6zM433.6 321.8c-1.2 2 2.3 3.6 4.1 1.9.4-.5.4-.8-.2-.7-2.1.5-3.6 0-3-1 .3-.6.4-1 .1-1-.3 0-.7.4-1 .8zM68.5 332c-.3.6.1.7.9.4 1.8-.7 2.1-1.4.7-1.4-.6 0-1.3.4-1.6 1zM65 334.1c0 .5.5.7 1 .4.6-.3 1-.8 1-1.1 0-.2-.4-.4-1-.4-.5 0-1 .5-1 1.1zM69.5 334c-.3.5-.1 1 .4 1 .6 0 1.1-.5 1.1-1 0-.6-.2-1-.4-1-.3 0-.8.4-1.1 1zM422.5 344c-.3.5-.1 1 .4 1 .6 0 1.1-.5 1.1-1 0-.6-.2-1-.4-1-.3 0-.8.4-1.1 1zM421.5 346.9c-.3.5-.2 1.2.3 1.5.5.3.9-.1.9-.9 0-1.7-.3-1.9-1.2-.6zM74 347.4c0 .2.8 1 1.8 1.7 1.5 1.3 1.6 1.2.3-.4s-2.1-2.1-2.1-1.3zM424.6 347.8c-.3.5.1.9.9.9s1.2-.4.9-.9c-.3-.4-.7-.8-.9-.8-.2 0-.6.4-.9.8zM78.8 350.7c.7.3 1.6.2 1.9-.1.4-.3-.2-.6-1.3-.5-1.1 0-1.4.3-.6.6zM419.4 354.1c-.3.6-.2 1.5.3 2s.9.1.9-1.1c0-2.3-.2-2.4-1.2-.9zM98 356.1c0 .5.5.7 1 .4.6-.3 1-.8 1-1.1 0-.2-.4-.4-1-.4-.5 0-1 .5-1 1.1zM414.9 357.7c-1.3 1.7-1.3 1.7.6.3 1.1-.8 2.2-1.6 2.4-1.7.2-.2 0-.3-.6-.3s-1.7.8-2.4 1.7zM83.6 359.2c.3.5 1 .6 1.5.3 1.3-.9 1.1-1.2-.6-1.2-.8 0-1.2.4-.9.9zM95 360.1c0 .5.5.7 1 .4.6-.3 1-.8 1-1.1 0-.2-.4-.4-1-.4-.5 0-1 .5-1 1.1zM85.6 362.3c.5 1.4.2 1.6-1.2 1.1-1.6-.5-1.6-.4-.4.5 2 1.4 3.9-.4 2.1-2.2-1-1-1.1-.9-.5.6zM412.6 362.3c.3 1 .9 1.5 1.2 1.2.3-.3 0-1.1-.7-1.8-1-.9-1.1-.8-.5.6zM91.2 362.8c-.7.5-1 1.5-.7 2.4.3.8-.2 2.1-1.1 2.9-1.5 1.2-1.6 1.2-1-.9.4-1.2.4-2.2-.1-2.2-1.1 0-1.5 4.7-.5 5.3.4.3 1.7-.9 3-2.4 1.3-1.6 1.8-2.9 1.2-2.9-1 0-.9-.4 0-1.5 1.4-1.7 1.1-1.9-.8-.7zM404.8 372c-1 1-1.4 2.2-.9 2.4.4.3 1.3-.6 1.9-1.9 1.4-3 1.2-3.1-1-.5zM79.4 376.1c-.4.7-.3.9.4.5.5-.3 1.3 0 1.5.6.4.9.6 1 .6.1.1-1.7-1.6-2.5-2.5-1.2zM404 378.5c-.7.8-1.6 1.3-2 1-.4-.3-1.4.3-2.1 1.3-1.2 1.5-1.2 1.5.1.5.8-.6 1.7-1.1 2-1 .3.1 1.6-.6 3-1.6 1.3-.9 1.9-1.7 1.3-1.7-.6 0-1.6.7-2.3 1.5zM79.6 379.4c.6 1.5.4 1.7-.7 1-1.7-1-4.3-1.5-3.4-.6.4.4 1.1.7 1.6.7s.8.4.7 1c-.2.5-.8.9-1.5.9-.6-.1-.9.5-.6 1.3.5 1.2 1.1.9 3.2-1.1 2-2.1 2.3-2.8 1.3-3.8-1.1-1.1-1.2-.9-.6.6zM397.5 384c-.3.6.1.7.9.4 1.8-.7 2.1-1.4.7-1.4-.6 0-1.3.4-1.6 1zM74.3 385.9c0 1.1.5 1.8.9 1.5.4-.3.5-1.1.1-1.9-.7-2.1-1.2-1.9-1 .4zM70.5 386c-.3.6.1.7.9.4 1.8-.7 2.1-1.4.7-1.4-.6 0-1.3.4-1.6 1zM66 392c0 .5.5 1 1.1 1 .5 0 .7-.5.4-1-.3-.6-.8-1-1.1-1-.2 0-.4.4-.4 1z"/><path d="M69.4 391.9c.8 1.2-2.1 3.4-3.3 2.6-.7-.4-.8 0-.5 1 .6 1.4 1 1.3 3-.6s2.4-3.9.8-3.9c-.3 0-.3.4 0 .9zM60.7 394.1c.7.7 1.5 1 1.8.7.3-.3-.2-.9-1.2-1.2-1.4-.6-1.5-.5-.6.5zM380.5 397.1c-.4.6-.5 1.2-.2 1.5.2.3.7-.2 1-1.1.7-1.7.1-2-.8-.4zM64 397.8c0 .6-.7 1.8-1.6 2.6-.8.9-1.1 1.6-.5 1.6 1.3 0 3.5-3.9 2.7-4.8-.3-.3-.6 0-.6.6zM111.4 399.9c0 1.6.4 2.7.8 2.5.4-.2.5-1.4.3-2.6-.7-3.2-1.3-3.2-1.1.1zM117.4 398.1c-.4.7-.3.9.4.5.6-.3 1.3.2 1.5 1.1.4 1.6.5 1.6.6.1.1-2.1-1.5-3.2-2.5-1.7zM377.1 403.6c0 1.1.3 1.4.6.6.3-.7.2-1.6-.1-1.9-.3-.4-.6.2-.5 1.3zM121.5 406c.3.5.8 1 1.1 1 .2 0 .4-.5.4-1 0-.6-.5-1-1.1-1-.5 0-.7.4-.4 1zM105.3 407.5c0 .8.4 1.2.9.9.5-.3.6-1 .3-1.5-.9-1.3-1.2-1.1-1.2.6zM127.3 407.3c0 .8.6 1.4 1.3 1.4.7 0 1-.6.7-1.4-.3-.7-.8-1.3-1.2-1.3-.4 0-.8.6-.8 1.3zM49.6 410.5c-.9 2.6-.7 3.2.5 1.2.6-1 .9-2.1.6-2.3-.2-.3-.7.2-1.1 1.1zM133 410.9c0 .6.4 1.3 1 1.6.6.3.7-.1.4-.9-.7-1.8-1.4-2.1-1.4-.7zM365 410.9c0 .6.4 1.3 1 1.6.6.3.7-.1.4-.9-.7-1.8-1.4-2.1-1.4-.7zM52.1 412.7c-.7.8-1.1 1.6-.8 1.9.2.2 1-.2 1.7-1.1 1.7-2 .9-2.7-.9-.8zM137 412c0 .5.5 1 1.1 1 .5 0 .7-.5.4-1-.3-.6-.8-1-1.1-1-.2 0-.4.4-.4 1zM361.4 412.2c-.5.7-.3.8.6.3 1-.6 1.2-.4.7.8-.4 1.1-.2 1.4.9 1 1.1-.4 1.2-.9.3-1.9-1.4-1.7-1.6-1.7-2.5-.2zM47.3 416.5c0 .6.8 1.1 1.8 1.1.9 0 1.5-.5 1.2-1.1-.2-.7-1-1.2-1.7-1.2s-1.3.5-1.3 1.2zM355 416.5c-.7.9-1 1.8-.6 2.2.3.3.6.1.6-.6s.7-1.1 1.4-.8c1 .4 1.3.1.9-.9-.6-1.8-.8-1.8-2.3.1zM359.3 418.5c0 .8.4 1.2.9.9.5-.3.6-1 .3-1.5-.9-1.3-1.2-1.1-1.2.6zM43.6 419.3c.3 1 .9 1.5 1.2 1.2.3-.3 0-1.1-.7-1.8-1-.9-1.1-.8-.5.6zM150.1 421.4c-.8 1-.9 1.6-.1 2.1.6.4.9.1.8-.7-.2-.7.3-1.2 1-1 .8.1 1.1-.2.7-.8-.8-1.3-1-1.3-2.4.4zM343.6 422.8c-.3.5.1.9.9.9s1.2-.4.9-.9c-.3-.4-.7-.8-.9-.8-.2 0-.6.4-.9.8zM38.5 424c-.3.6.1.7.9.4 1.8-.7 2.1-1.4.7-1.4-.6 0-1.3.4-1.6 1zM152.5 424c.3.5.8 1 1.1 1 .2 0 .4-.5.4-1 0-.6-.5-1-1.1-1-.5 0-.7.4-.4 1zM83.6 427.8c-1.8 2-2.2 2.9-1.2 2.9.8 0 1.3-.4 1-.8-.2-.4.6-1.5 1.8-2.3 1.2-.9 1.9-1.8 1.7-2.1-.3-.2-1.8.8-3.3 2.3zM148 426c-.8.5-1 1-.5 1 .6 0 1.7-.5 2.5-1s1.1-1 .5-1c-.5 0-1.7.5-2.5 1zM155 426c0 .5.5 1 1.1 1 .5 0 .7-.5.4-1-.3-.6-.8-1-1.1-1-.2 0-.4.4-.4 1zM161 426c0 .5.5 1 1.1 1 .5 0 .7.5.3 1.2-.4.6-.3.8.4.4.5-.3 1.3 0 1.5.6.4.9.6.8.6-.2.1-.8-.8-2.1-1.9-2.8-1.2-.7-2-.8-2-.2zM342.5 426c-.3.6.1.7.9.4 1.8-.7 2.1-1.4.7-1.4-.6 0-1.3.4-1.6 1zM337.5 427c.3.5.8 1 1.1 1 .2 0 .4-.5.4-1 0-.6-.5-1-1.1-1-.5 0-.7.4-.4 1zM87.3 429.5c0 .8.4 1.2.9.9.5-.3.6-1 .3-1.5-.9-1.3-1.2-1.1-1.2.6zM170.6 431.5c.9 1.4 2.1 2.5 2.8 2.4.7 0 .6-.2-.2-.6-.6-.2-1-.8-.8-1.2.3-.4-.4-1.3-1.5-1.9-1.9-1.2-1.9-1.2-.3 1.3zM35.9 430.2c-.5 1.8-.6 3.8-.1 3.4.7-.8 1.2-3.6.6-3.6-.2 0-.4.1-.5.2zM166.8 430.7c.6.2.9 1 .6 1.5-.4.7-.2.8.5.4 1.3-.9.5-2.6-1.2-2.5-.9 0-.8.2.1.6zM81.5 434c-.3.6.1.7.9.4 1.8-.7 2.1-1.4.7-1.4-.6 0-1.3.4-1.6 1zM179.4 435.2c-.4.7-.4 1 .1.6.4-.4 1.4 0 2.2 1 1.3 1.5 1.3 1.5.3-.6-1.2-2.5-1.6-2.7-2.6-1zM171 436c0 .5.5 1 1.1 1 .5 0 .7-.5.4-1-.3-.6-.8-1-1.1-1-.2 0-.4.4-.4 1zM321.6 435.8c-.2.4.4.8 1.4.8 1 0 1.6-.4 1.4-.8-.3-.4-.9-.8-1.4-.8-.5 0-1.1.4-1.4.8zM79.4 437.1c.1.7 1 1.3 1.9 1.5.9.1 1.5-.2 1.1-.7-.3-.5-.9-.7-1.4-.4-.4.3-1.1 0-1.3-.5-.3-.6-.4-.5-.3.1zM177.6 437.3c.3 1 .9 1.5 1.2 1.2.3-.3 0-1.1-.7-1.8-1-.9-1.1-.8-.5.6zM183.5 438.9c-.3.5-.2 1.2.3 1.5.5.3.9-.1.9-.9 0-1.7-.3-1.9-1.2-.6zM191.4 439.1c-.4.7-.3.9.4.5.6-.3 1.3.2 1.5 1.1.4 1.6.5 1.6.6.1.1-2.1-1.5-3.2-2.5-1.7zM45 439.7c0 .5 1.3 1.7 2.8 2.7l2.7 1.9-2.4-2.6c-2.6-2.8-3.1-3.2-3.1-2zM306.7 440.1c.7.7 1.5 1 1.8.7.3-.3-.2-.9-1.2-1.2-1.4-.6-1.5-.5-.6.5zM310.5 440c-.3.6.1.7.9.4 1.8-.7 2.1-1.4.7-1.4-.6 0-1.3.4-1.6 1zM197.8 440.7c.6.2 1 .9.7 1.4-.4.5.1.6 1 .2 1.3-.5 1.4-.7.3-1.4-.7-.5-1.7-.8-2.3-.8-.5 0-.4.3.3.6zM72 442.5c-.7.9-.8 1.5-.2 1.5.5 0 1.2-.7 1.6-1.5.3-.8.4-1.5.2-1.5s-.9.7-1.6 1.5zM295 442.2c0 .4.4.8.9.8.6 0 1.2-.4 1.5-.8.3-.5-.1-.9-.9-.9s-1.5.4-1.5.9zM203.5 443c.3.5.8 1 1.1 1 .2 0 .4-.5.4-1 0-.6-.5-1-1.1-1-.5 0-.7.4-.4 1zM206.3 443.5c0 .8.4 1.2.9.9.5-.3.6-1 .3-1.5-.9-1.3-1.2-1.1-1.2.6zM291.5 443.1c-.4.6-.4 1.3-.1 1.6.3.4.6.1.6-.6s.5-.9 1.2-.5.8.3.4-.4c-.9-1.5-1.3-1.5-2.1-.1zM298.4 443.6c-1.8 1.4-1.8 1.5.4.4 1.2-.6 2.2-1.3 2.2-1.5 0-.8-.5-.6-2.6 1.1zM45.5 444c.3.5.8 1 1.1 1 .2 0 .4-.5.4-1 0-.6-.5-1-1.1-1-.5 0-.7.4-.4 1zM209 444c0 .5.5 1 1.1 1 .5 0 .7-.5.4-1-.3-.6-.8-1-1.1-1-.2 0-.4.4-.4 1zM218.7 445.1c.7.7 1.5 1 1.8.7.3-.3-.2-.9-1.2-1.2-1.4-.6-1.5-.5-.6.5zM279 445.5c-2.4 1.3-2.4 1.4-.3 1.2 1.2-.1 2.5-.7 2.7-1.4.6-1.6.7-1.6-2.4.2zM284.5 444.8c-1 .7-1.8 3.2-1 3.2.2 0 .9-.9 1.5-2 1.2-2.2 1.1-2.4-.5-1.2zM49.3 446.5c0 .8.4 1.2.9.9.5-.3.6-1 .3-1.5-.9-1.3-1.2-1.1-1.2.6zM52.6 446.3c.3 1 .9 1.5 1.2 1.2.3-.3 0-1.1-.7-1.8-1-.9-1.1-.8-.5.6zM227 445.8c0 1.5 1.1 2.1 2.7 1.5 1.2-.5 1.2-.7.1-1.4-1.7-1.1-2.8-1.1-2.8-.1zM217.3 447.4c0 1.5 2.2 1.5 3.4 0 .4-.5.4-.6-.1-.2-.5.4-1.4.3-2.1-.2-.8-.7-1.2-.5-1.2.4zM232.1 447.6c0 1.1.3 1.4.6.6.3-.7.2-1.6-.1-1.9-.3-.4-.6.2-.5 1.3zM236.6 446.8c-.2.4 0 1.4.6 2.2.8 1.2.9 1.2.5-.2-.3-.9-.1-1.9.6-2.2.9-.3.9-.5 0-.5-.6-.1-1.4.3-1.7.7zM262.5 447.1c-.4.6-.5 1.2-.2 1.5.2.3.7-.2 1-1.1.7-1.7.1-2-.8-.4zM266.4 446.8c-.5.4-1 1.4-1.2 2.2-.2 1.1.1 1.1 1.1-.3 1.5-1.8 3.3-2.4 2.2-.7-.9 1.4.1 1.2 1.3-.3.8-1 .7-1.3-.7-1.4-.9-.1-2.1.2-2.7.5zM205.5 447.9c-.3.5-.2 1.2.3 1.5.5.3.9-.1.9-.9 0-1.7-.3-1.9-1.2-.6zM224 448.1c0 .5.5.7 1 .4.6-.3 1-.8 1-1.1 0-.2-.4-.4-1-.4-.5 0-1 .5-1 1.1zM249.1 448.6c0 1.1.3 1.4.6.6.3-.7.2-1.6-.1-1.9-.3-.4-.6.2-.5 1.3zM254.7 448.1c.7.7 1.5 1 1.8.7.3-.3-.2-.9-1.2-1.2-1.4-.6-1.5-.5-.6.5zM293 447.9c0 .6.4 1.3 1 1.6.6.3.7-.1.4-.9-.7-1.8-1.4-2.1-1.4-.7zM51.5 450c.3.5.8 1 1.1 1 .2 0 .4-.5.4-1 0-.6-.5-1-1.1-1-.5 0-.7.4-.4 1zM229.5 450c.3.5.8 1 1.1 1 .2 0 .4-.5.4-1 0-.6-.5-1-1.1-1-.5 0-.7.4-.4 1z"/></svg>